<svg version="1.2" xmlns="http://www.w3.org/2000/svg" viewBox="0 0 319 319" width="319" height="319"><style></style><path fill-rule="evenodd" d="m91.9 17.3c5.1 0 9.8 1.4 13.9 3.9 2.7-12.1 13.4-21.2 26.2-21.2 12.7 0 23.4 9.1 26.2 21.2 4-2.5 8.8-3.9 13.8-3.9 14.9 0 27 12.3 27 27.4v0.8c3.8-2.2 8.3-3.5 13.1-3.5 14.8 0 26.9 12.3 26.9 27.4v135.2c0 26.4-11.5 50.2-29.6 66.4q0.3 0.9 0.3 1.8v39.2c0 3.9-3.1 7-6.9 7h-101.6c-3.8 0-6.9-3.1-6.9-7v-39.2q0-0.9 0.3-1.8c-18.1-16.2-29.6-40-29.6-66.4v-159.9c0-15.1 12.1-27.4 26.9-27.4zm16.2 287.7h87.8v-24c-12.9 7.7-27.9 12.1-43.9 12.1-16 0-31-4.4-43.9-12.1 0 0 0 24 0 24zm43.9-26c40.4 0 73.2-33.4 73.2-74.4v-135.2c0-7.4-5.9-13.4-13.1-13.4-7.3 0-13.1 6-13.1 13.4v59.9c0 3.8-3.1 7-7 7-3.8 0-6.9-3.2-6.9-7v-84.6c0-7.4-5.8-13.4-13.1-13.4-7.2 0-13.1 6-13.1 13.4v84.6c0 3.8-3.1 7-6.9 7-3.8 0-6.9-3.2-6.9-7v-101.9c0-7.4-5.9-13.4-13.1-13.4-7.3 0-13.1 6-13.1 13.4v101.9c0 3.8-3.1 7-6.9 7-3.9 0-7-3.2-7-7v-84.6c0-7.4-5.8-13.4-13.1-13.4-7.2 0-13.1 6-13.1 13.4v127.3l63.1-22.9c6.7-2.4 14.1-2.1 20.6 1.1 6.5 3.1 11.4 8.6 13.8 15.5 2.4 6.9 2 14.4-1.1 21-3.1 6.6-8.5 11.6-15.3 14l-39.3 14.3q-1.2 0.4-2.3 0.4c-2.9 0-5.5-1.8-6.5-4.7-1.3-3.6 0.6-7.7 4.2-9l39.3-14.2c3.3-1.2 6-3.6 7.5-6.9 1.5-3.2 1.6-6.8 0.5-10.2-1.2-3.3-3.6-6-6.8-7.5-3.1-1.6-6.7-1.8-10-0.6l-67.7 24.6v17.7c0 41 32.8 74.4 73.2 74.4z"/></svg>