<svg version="1.2" xmlns="http://www.w3.org/2000/svg" viewBox="0 0 319 319" width="319" height="319"><style></style><path fill-rule="evenodd" d="m240.4 45.5v159.6c0 26.4-11.7 50.1-30 66.2q0.2 0.9 0.2 1.8v39.1c0 3.9-3.1 7-7 7h-103c-3.8 0-7-3.1-7-7v-39.1q0-0.9 0.3-1.8c-18.4-16.1-30-39.8-30-66.2v-134.9c0-15.1 12.2-27.3 27.3-27.3 4.8 0 9.4 1.3 13.3 3.5v-0.9c0-15 12.2-27.3 27.3-27.3 5.1 0 9.9 1.5 14 3.9 2.8-12.1 13.7-21.1 26.6-21.1 13 0 23.8 9 26.6 21.1 4.1-2.4 8.9-3.9 14.1-3.9 15 0 27.3 12.3 27.3 27.3zm-43.8 235.8c-13.1 7.7-28.3 12.1-44.5 12.1-16.2 0-31.4-4.4-44.5-12.1v23.9h89c0 0 0-23.9 0-23.9zm29.8-76.2v-17.7l-68.7-24.4c-3.4-1.2-7-1.1-10.2 0.5-3.2 1.5-5.6 4.2-6.8 7.5-1.2 3.4-1 7 0.5 10.2 1.5 3.2 4.2 5.6 7.6 6.8l39.9 14.3c3.6 1.3 5.5 5.3 4.2 8.9-1 2.9-3.7 4.7-6.6 4.7q-1.2 0-2.3-0.5l-39.9-14.2c-6.9-2.4-12.4-7.4-15.5-14-3.2-6.6-3.6-14-1.1-20.9 2.4-6.8 7.4-12.3 14-15.5 6.6-3.1 14-3.5 20.9-1l64 22.8v-127.1c0-7.3-6-13.3-13.3-13.3-7.4 0-13.4 6-13.4 13.3v84.4c0 3.9-3.1 7-7 7-3.8 0-7-3.1-7-7v-101.6c0-7.3-5.9-13.3-13.3-13.3-7.3 0-13.3 6-13.3 13.3v101.6c0 3.9-3.1 7-7 7-3.8 0-7-3.1-7-7v-84.4c0-7.3-6-13.3-13.3-13.3-7.3 0-13.3 6-13.3 13.3v84.4c0 3.9-3.1 7-7 7-3.9 0-7-3.1-7-7v-59.7c0-7.3-6-13.3-13.3-13.3-7.4 0-13.3 6-13.3 13.3v134.9c0 41 33.3 74.3 74.2 74.3 41 0 74.3-33.3 74.3-74.3z"/></svg>