<svg width="75" height="95" viewBox="0 0 75 95" fill="none" xmlns="http://www.w3.org/2000/svg">
<path d="M46.4101 48.8594C49.08 46.7078 50.5012 43.8328 51.2761 40.5774C51.4456 39.8695 51.5303 38.9652 52.7225 39.433C52.8731 39.4922 53.1774 39.2303 53.3813 39.0775C55.3484 37.5651 56.4371 34.1974 55.7469 31.7714C55.1853 29.7913 54.4261 29.4546 52.553 30.415C52.1891 29.9472 52.4495 29.4296 52.4778 28.9619C52.666 25.7002 52.9107 22.4416 52.277 19.1924C51.7813 16.6542 50.7177 14.3622 49.3122 12.2262C47.7905 9.9125 45.4093 8.88348 42.8555 8.15381C42.8555 7.97918 42.8555 7.80768 42.8555 7.63306C48.6094 8.65896 51.0816 12.8094 52.5781 17.8204C53.5758 21.1569 53.3719 24.5932 53.146 28.0108C53.0927 28.8278 53.0519 29.3641 54.197 29.2332C55.0535 29.1334 55.5806 29.8599 55.9634 30.5647C57.7015 33.7453 55.8943 38.7469 52.4715 40.0878C51.957 40.2905 51.8785 40.6491 51.7687 41.0014C50.9718 43.574 50.2126 46.106 48.1325 48.0923C47.3074 48.8812 47.6745 50.3624 47.505 51.5286L47.0031 51.5224C47.0689 50.827 47.1348 50.1286 47.2007 49.4332C47.2195 49.0029 46.9403 49.0465 46.6548 49.0933L46.407 48.8625L46.4101 48.8594Z" fill="#0C1C2D"/>
<path d="M46.4099 49.6386C48.0162 48.332 49.2617 46.6762 50.1182 44.7991C50.5449 43.8636 50.8775 42.8876 51.141 41.896C51.2759 41.3846 51.3167 40.2776 51.963 40.1061C52.1544 40.0562 52.3614 40.0967 52.5465 40.1529C52.8007 40.2308 52.8979 40.209 53.1238 40.0531C53.4752 39.8067 53.7983 39.5167 54.0838 39.1987C54.7019 38.5095 55.1568 37.6801 55.4674 36.8132C55.778 35.9463 55.9412 35.0265 55.9568 34.1003C55.9725 33.0869 56.0259 32.0329 55.7592 31.0413C55.5804 30.374 55.2949 29.4261 54.5544 29.1797C54.2407 29.0737 53.8956 29.1205 53.5819 29.2078C53.3497 29.2733 53.1269 29.3637 52.9073 29.4635C52.8446 29.4916 52.6124 29.6506 52.5497 29.635C52.5183 29.6257 52.465 29.5009 52.4493 29.4729C52.4305 29.4386 52.4148 29.4011 52.4054 29.3606C52.2799 28.949 52.2673 29.3045 52.3646 30.4177V30.5237C52.3959 30.1495 52.4712 29.7847 52.4932 29.4074C52.5214 28.8991 52.5528 28.3877 52.581 27.8794C52.6344 26.8972 52.6752 25.9149 52.6846 24.9296C52.7065 22.8809 52.6971 20.8197 52.3426 18.7929C52.0289 16.9874 51.4171 15.2474 50.5794 13.6166C49.8045 12.1073 48.9103 10.6075 47.5519 9.54413C46.1934 8.48081 44.5118 7.85092 42.849 7.36759L42.8552 8.14716V7.62641L42.8458 8.40597C44.5212 8.71156 46.1338 9.32274 47.5111 10.3299C48.766 11.2467 49.7731 12.4503 50.5606 13.7818C51.3951 15.1913 51.9912 16.7255 52.4744 18.2846C52.8163 19.3884 53.0517 20.5141 53.1771 21.6616C53.2399 22.2416 53.2807 22.8216 53.2995 23.4048C53.2995 23.4827 53.3215 24.0409 53.3121 23.6106C53.3152 23.7821 53.3058 23.9536 53.2995 24.1251C53.2901 24.4462 53.2775 24.7705 53.2619 25.0917C53.2117 26.1332 53.1113 27.1716 53.1081 28.2162C53.1081 28.7744 52.8728 29.8876 53.6666 30.0092C54.0995 30.0747 54.4948 29.9188 54.9121 30.1308C55.298 30.3273 55.571 30.689 55.7906 31.0476C56.1953 31.7024 56.4525 32.4321 56.5624 33.1929C56.5937 33.405 56.6031 33.617 56.622 33.8291C56.4965 32.4383 56.6408 32.7158 56.6063 33.168C56.6 33.2335 56.5937 33.299 56.5875 33.3613C56.5404 33.7854 56.4588 34.2032 56.3459 34.6149C56.1357 35.3757 55.8125 36.1085 55.389 36.7758C54.9654 37.4431 54.4603 38.02 53.8517 38.5002C53.5787 38.7153 53.2901 38.9056 52.9826 39.0646C52.6281 39.2517 52.192 39.3421 51.9661 39.7007C51.7214 40.0905 51.6398 40.6237 51.5049 41.054C51.3418 41.5717 51.1755 42.0862 50.9904 42.5976C50.6076 43.6484 50.1527 44.6774 49.5347 45.616C49.2303 46.0807 48.8852 46.5203 48.5056 46.9257C48.126 47.3311 47.7934 47.6304 47.6617 48.1855C47.5581 48.6158 47.5613 49.0679 47.555 49.5076C47.5519 49.782 47.5581 50.0595 47.5424 50.3339C47.5424 50.3589 47.5425 50.705 47.5017 50.7424C47.4515 50.7892 47.0781 50.7362 46.9997 50.7362V52.2953C47.0875 51.3754 47.2036 50.4556 47.2036 49.5294C47.2036 49.2706 47.2036 49.0118 47.2005 48.753C47.2005 48.6407 47.2162 48.4692 47.1409 48.3757C47.0593 48.2728 46.9369 48.2759 46.8209 48.2853C46.7769 48.2853 46.6922 48.3227 46.6546 48.3102C46.595 48.2915 46.4538 48.1231 46.4067 48.0794C46.4757 48.1449 46.4004 48.7499 46.4004 48.859C46.4004 49.043 46.4004 49.227 46.4004 49.4109C46.4004 49.4515 46.3816 49.6167 46.4067 49.6386C46.4538 49.6822 46.5918 49.8506 46.6546 49.8693C46.7079 49.8849 46.8428 49.8381 46.8993 49.8413C47.122 49.8537 47.1911 49.9566 47.1942 50.1812V48.6501C47.1315 49.3455 47.0656 50.0439 46.9997 50.7393C46.9871 50.8859 46.9871 52.2984 46.9997 52.2984C47.1189 52.2984 47.2601 52.3234 47.3762 52.3047C47.5362 52.2797 47.5111 52.261 47.5268 52.0895C47.5456 51.8868 47.5519 51.6841 47.5581 51.4815C47.5675 50.9732 47.5393 50.4587 47.6209 49.9566C47.784 48.9588 48.675 48.3757 49.246 47.5961C50.4978 45.8842 51.1285 43.8386 51.7465 41.8398C51.8657 41.4594 51.9755 41.1133 52.3552 40.9168C52.716 40.7297 53.083 40.5925 53.425 40.3711C54.0964 39.9346 54.6705 39.3577 55.138 38.7091C56.0949 37.3807 56.6031 35.7717 56.6314 34.144C56.6628 32.3822 56.6816 30.4801 55.4706 29.0488C55.1725 28.6964 54.7803 28.4345 54.3035 28.4438C53.974 28.4501 53.5379 28.5592 53.2807 28.2879C53.1928 28.1944 53.1709 28.0884 53.1364 27.973C53.1238 27.9262 53.1301 27.8794 53.1207 27.8327C53.0956 27.7079 53.1018 29.2702 53.1269 28.9833C53.1364 28.8617 53.1426 28.737 53.1489 28.6153C53.1897 27.9948 53.2273 27.3774 53.2587 26.7569C53.3779 24.3371 53.4407 21.855 53.0924 19.4508C52.8069 17.4832 52.1763 15.5374 51.3449 13.7319C50.6641 12.257 49.7857 10.86 48.6186 9.71875C47.395 8.52446 45.8859 7.67007 44.2451 7.18362C43.787 7.04642 43.3196 6.94039 42.8458 6.8562C42.8552 6.8562 42.8364 7.62953 42.8395 7.63576V8.15651C42.8395 8.20952 42.805 8.9236 42.849 8.93607C44.4427 9.39757 46.0302 9.97757 47.3699 10.9723C48.8413 12.0637 49.7919 13.6384 50.6108 15.2443C51.5175 17.0217 52.1387 18.9207 52.4273 20.8914C52.5152 21.4901 52.5779 22.092 52.6156 22.6938C52.6312 22.9464 52.6438 23.2021 52.6532 23.4578C52.6563 23.5607 52.6595 23.6604 52.6626 23.7633C52.6658 24.0409 52.6689 24.0658 52.6689 23.8351C52.6689 23.9473 52.6658 24.0596 52.6626 24.1718C52.6375 25.2663 52.5748 26.3608 52.512 27.4554C52.4807 27.9667 52.3928 28.4688 52.3583 28.9739C52.3238 29.4791 52.3332 30.0248 52.352 30.5393C52.3583 30.6921 52.3646 30.8387 52.421 30.9821C52.5403 31.2783 52.6187 31.1598 52.854 31.0507C53.1615 30.9104 53.4815 30.7794 53.814 30.717C55.1443 30.4738 55.6274 31.9082 55.8345 32.9528C55.869 33.1212 55.8941 33.2927 55.9129 33.4673C55.9255 33.5983 55.9286 33.7324 55.9412 33.8634V32.8998C55.9349 32.9996 55.9286 33.0994 55.9223 33.1992C55.8878 33.6045 55.8188 34.0068 55.7247 34.4028C55.5396 35.1605 55.2509 35.8933 54.8588 36.5669C54.4666 37.2404 53.9834 37.8266 53.3779 38.3069C53.2399 38.416 53.0987 38.5438 52.9418 38.6187C52.7567 38.706 52.6814 38.6374 52.4901 38.5875C52.2077 38.5127 51.9002 38.5033 51.6775 38.7216C51.4704 38.9243 51.4077 39.2392 51.3418 39.5074C51.2414 39.9284 51.1441 40.3462 51.0249 40.7609C50.7614 41.687 50.4288 42.5976 50.0147 43.4676C49.1645 45.2574 47.9503 46.8353 46.4067 48.0919C46.3283 48.1574 46.4004 48.7623 46.4004 48.8715C46.4004 48.9806 46.4883 49.5856 46.4067 49.6511L46.4099 49.6386Z" fill="#0C1C2D"/>
<path d="M19.9786 35.3348C20.4147 36.7536 21.0672 38.4343 22.3316 38.8459C24.8948 39.6847 24.5779 41.8987 25.2932 43.6199C26.9404 47.5957 30.0181 50.6516 33.8112 51.7617C37.7831 52.9248 42.4609 53.2865 45.8053 49.3419C45.9685 49.1486 46.21 49.0176 46.414 48.8586C46.4955 48.9366 46.5771 49.0114 46.6618 49.0894C46.6398 49.1829 46.6273 49.2764 46.6273 49.3731C46.4767 49.5166 46.3167 49.6506 46.1818 49.8065C42.6021 53.9289 37.8992 53.0339 33.3939 52.4259C31.6339 52.1889 30.4166 50.4427 28.7161 49.2546C28.7161 52.2388 29.011 55.0702 28.669 57.6022C28.371 57.861 28.349 57.8797 28.3302 57.8953C28.3585 57.8579 28.4149 57.8204 28.4149 57.7799C28.4839 55.0327 28.393 52.2918 28.0667 49.5602C27.9914 48.9366 27.9349 48.3285 27.411 47.8764C25.6446 46.3546 24.7128 44.3839 24.2171 42.145C23.9787 41.0661 23.4924 40.2865 22.3379 39.6161C20.4805 38.5341 19.4609 36.5727 19.0374 34.4055C19.1377 34.393 19.235 34.3712 19.3291 34.3369C19.8029 34.5022 19.6617 35.0666 19.9817 35.3316L19.9786 35.3348Z" fill="#0C1C2D"/>
<path d="M19.9788 36.1136C20.3176 37.2112 20.7286 38.496 21.6572 39.2506C22.1247 39.631 22.7365 39.7245 23.2416 40.0488C23.6557 40.3139 23.9914 40.6725 24.233 41.0997C24.713 41.9385 24.8197 42.9208 25.0926 43.8313C25.4409 45.0037 26.0746 46.1325 26.7523 47.146C28.1453 49.2383 30.0779 51.0033 32.3996 52.026C33.4882 52.5062 34.6616 52.8118 35.8318 53.0363C37.0021 53.2609 38.1754 53.3762 39.3551 53.3076C40.6853 53.2297 41.9999 52.9054 43.1795 52.2755C43.8133 51.9356 44.4 51.5178 44.9302 51.0344C45.2094 50.7787 45.4698 50.5043 45.7239 50.2206C45.8714 50.0553 46.0251 49.9212 46.2071 49.7903C46.2416 49.7653 46.3953 49.6375 46.4204 49.6375C46.4769 49.6375 46.6306 49.8339 46.6683 49.8682V48.3091C46.6024 48.6926 46.3075 48.8984 46.0533 49.1791C45.7992 49.4597 45.5451 49.7123 45.2721 49.9555C44.767 50.4014 44.2149 50.7912 43.6188 51.1061C42.5113 51.6924 41.2814 52.0073 40.0328 52.1196C38.7841 52.2318 37.4915 52.1539 36.2303 52.0136C35.5683 51.9418 34.9063 51.8514 34.2475 51.761C33.5886 51.6706 32.9925 51.6175 32.4121 51.3431C31.0003 50.6727 29.9838 49.3693 28.7226 48.4744C28.7759 48.5118 28.7132 49.2103 28.7163 49.2539C28.7163 50.785 28.7696 52.3098 28.8136 53.8409C28.8198 54.0311 28.823 54.2244 28.8292 54.4146C28.8292 54.5113 28.8324 54.6048 28.8355 54.7015C28.8355 54.9447 28.8355 54.9198 28.8355 54.6267C28.7759 54.9728 28.8136 55.3626 28.7885 55.7149C28.7759 55.9083 28.7602 56.0985 28.7414 56.2918C28.7288 56.429 28.7477 56.7003 28.6787 56.8188C28.619 56.9248 28.4402 57.0277 28.3398 57.1119V58.671C28.4747 58.5245 28.4308 58.3343 28.4339 58.144C28.4402 57.9008 28.4433 57.6545 28.4465 57.4112C28.4528 56.8032 28.4559 56.1951 28.4528 55.584C28.4496 54.4895 28.4277 53.3918 28.3743 52.2973C28.321 51.2028 28.2331 50.1488 28.1139 49.0793C28.0669 48.6583 28.0386 48.2187 27.9006 47.8164C27.7406 47.3455 27.3955 47.0867 27.0472 46.7531C25.7578 45.512 24.9201 43.9092 24.4369 42.2036C24.2205 41.4396 24.1201 40.6538 23.6557 39.9865C23.1914 39.3192 22.4667 38.9668 21.8141 38.4835C20.2454 37.3235 19.4172 35.4837 19.047 33.6221V35.1813C19.2038 35.1563 19.3168 35.0908 19.4611 35.175C19.5678 35.2374 19.6336 35.3496 19.6807 35.4588C19.7811 35.6864 19.8031 35.9265 19.9913 36.1074C19.9191 36.0388 19.9976 35.4401 19.9976 35.3278C19.9976 35.1438 19.9976 34.9599 19.9976 34.7759C19.9976 34.7353 20.0164 34.5732 19.9913 34.5483C19.8031 34.3643 19.7811 34.1273 19.6807 33.8997C19.6368 33.803 19.5834 33.7063 19.4987 33.6408C19.345 33.5192 19.2226 33.5972 19.047 33.6252C19.0093 33.6315 19.0219 35.0534 19.047 35.1844C19.3419 36.6593 19.9097 38.1124 20.9325 39.2443C21.9553 40.3763 23.4236 40.766 24.004 42.1911C24.2863 42.8802 24.3836 43.6411 24.6189 44.3489C24.8542 45.0567 25.1836 45.8051 25.5852 46.4724C25.9868 47.1397 26.4825 47.7696 27.0504 48.3153C27.3327 48.5866 27.6433 48.8111 27.819 49.1697C27.9947 49.5283 28.0324 49.943 28.0794 50.3391C28.3461 52.5811 28.4747 54.8481 28.4214 57.1057V56.9996C28.4057 57.0433 28.3775 57.0838 28.3398 57.115C28.252 57.2086 28.3335 57.7636 28.3335 57.8946C28.3335 58.0786 28.3335 58.2625 28.3335 58.4465C28.3335 58.4808 28.3555 58.6586 28.3398 58.6741C28.4967 58.5401 28.6441 58.4465 28.6943 58.2501C28.7853 57.9102 28.7728 57.5048 28.7947 57.1524C28.8512 56.2669 28.8512 55.3813 28.8481 54.4957C28.8449 53.6101 28.8292 52.7651 28.8041 51.8982C28.7916 51.4523 28.7759 51.0064 28.7602 50.5605C28.7539 50.311 28.7445 50.0584 28.7414 49.809C28.7414 49.7061 28.7383 49.6063 28.7351 49.5034C28.7351 49.494 28.732 49.0076 28.732 49.2539L28.7257 50.0335C29.601 50.654 30.3509 51.4149 31.1791 52.0884C31.5619 52.3971 31.9666 52.6902 32.4121 52.9023C32.8576 53.1143 33.3125 53.1923 33.7957 53.2577C35.6969 53.5197 37.6139 53.8097 39.5371 53.713C41.4603 53.6163 43.3552 53.0457 44.8925 51.8327C45.3286 51.4866 45.7271 51.0999 46.1004 50.6883C46.2416 50.5324 46.549 50.3328 46.6369 50.152C46.7247 49.9711 46.6777 49.5876 46.6777 49.388C46.6777 49.1884 46.6777 48.9889 46.6777 48.7862C46.6777 48.6583 46.7185 48.4525 46.6714 48.334C46.6494 48.2717 46.5647 48.1906 46.5051 48.1532C46.4047 48.0908 46.48 48.0908 46.3702 48.1158C46.3075 48.1282 46.2102 48.2311 46.1569 48.2685C45.7114 48.5897 45.3851 49.0606 44.9804 49.4317C43.5748 50.7288 41.796 51.4991 39.8947 51.7049C37.9935 51.9107 36.2052 51.6207 34.4326 51.1529C32.66 50.6852 30.8968 49.8308 29.4316 48.596C27.9665 47.3611 26.6707 45.6742 25.7797 43.8874C25.3938 43.1172 25.1052 42.3439 24.9044 41.5082C24.7287 40.7816 24.5656 40.0301 24.1546 39.3909C23.9475 39.0697 23.684 38.7953 23.3734 38.5739C22.9812 38.2933 22.5451 38.1779 22.1153 37.9783C21.2996 37.5948 20.8196 36.7248 20.4807 35.9359C20.2894 35.4868 20.1325 35.0222 19.9882 34.5576C20.054 34.7665 19.9819 35.1189 19.9819 35.3372C19.9819 35.571 19.9191 35.8922 19.9882 36.1167L19.9788 36.1136Z" fill="#0C1C2D"/>
<path d="M42.8514 7.63008C42.8514 7.8047 42.8514 7.97621 42.8514 8.15083C40.0121 7.57084 37.1885 7.55213 34.2989 7.9232C28.4258 8.67469 25.2822 12.2108 23.748 17.5617C22.9668 20.2871 22.8068 23.0748 22.9762 25.8905C23.0641 27.3748 23.1394 28.856 23.2303 30.518C22.126 29.9349 21.1691 29.2551 20.4067 30.5991C19.7824 31.3257 19.8796 32.336 19.453 33.2153C18.6184 31.7092 20.002 29.1242 21.6083 29.2614C22.675 29.3549 22.5464 28.9433 22.5056 28.2822C22.3362 25.3355 22.0632 22.37 22.7095 19.4545C24.7896 10.081 28.8933 6.89729 39.623 7.08439C40.7023 7.1031 41.7753 7.43987 42.8483 7.63008H42.8514Z" fill="#0C1C2D"/>
<path d="M42.8428 7.63079V8.15154L42.8522 7.37197C39.9157 6.78262 36.8599 6.74832 33.9014 7.20047C31.8778 7.50918 29.9106 8.22637 28.2823 9.47991C24.7152 12.224 23.2751 17.0105 22.9771 21.3105C22.748 24.6252 23.0492 27.9618 23.2281 31.2733V29.7423C22.6225 29.4211 21.7692 28.7943 21.0507 29.1436C20.6899 29.3182 20.4703 29.6986 20.257 30.0198C19.9652 30.4595 19.8774 30.9896 19.7581 31.4916C19.7111 31.6912 19.6609 31.8939 19.5919 32.0903C19.5824 32.1184 19.4695 32.4427 19.4475 32.4396C19.413 32.4333 19.3503 32.2338 19.3377 32.2026C19.275 32.0373 19.2373 31.8658 19.2122 31.6881C19.0993 30.8742 19.1181 33.4374 19.2154 32.6111C19.2311 32.4863 19.253 32.3647 19.2844 32.2431C19.457 31.5384 19.8585 30.8399 20.4515 30.4065C20.6962 30.2287 20.9754 30.0947 21.2798 30.0541C21.6123 30.0105 22.0515 30.1664 22.3496 29.9637C22.5222 29.8452 22.5253 29.6425 22.5316 29.4523C22.5473 28.891 22.5535 28.3235 22.519 27.7622C22.4531 26.6365 22.3716 25.5108 22.3308 24.3851C22.3245 24.2355 22.3214 24.0858 22.3151 23.9361C22.3119 23.8083 22.3621 23.1784 22.3057 23.8613C22.3308 23.5401 22.3245 23.2158 22.3433 22.8915C22.3841 22.2523 22.4531 21.613 22.5598 20.9831C22.8328 19.3866 23.2814 17.79 23.8524 16.2746C24.3073 15.0709 24.872 13.9016 25.6156 12.8476C27.0149 10.8644 29.0165 9.50486 31.3319 8.7783C32.8817 8.29186 34.5069 8.06111 36.1226 7.94885C37.092 7.88025 38.0646 7.85842 39.0372 7.86466C40.3486 7.87401 41.5628 8.18272 42.8428 8.41659C42.7613 8.40099 42.9464 6.87617 42.8428 6.85746C41.6444 6.63918 40.4929 6.31801 39.2662 6.30553C38.3376 6.29618 37.4058 6.31177 36.4771 6.36478C34.943 6.45521 33.4025 6.64542 31.9154 7.04768C29.4589 7.71186 27.2847 9.02153 25.763 11.0765C24.9693 12.1491 24.3701 13.3528 23.8932 14.5938C23.2783 16.1904 22.8014 17.8867 22.5284 19.5737C22.1363 22.0153 22.2367 24.5566 22.3716 27.0169C22.4061 27.6406 22.4469 28.2674 22.4845 28.891C22.4939 29.0625 22.5002 29.234 22.5159 29.4055V28.76C22.5504 28.1083 22.5473 27.9025 22.5065 28.1395C22.4939 28.1613 22.5033 28.1925 22.4876 28.2143C22.4563 28.2642 22.4437 28.3141 22.3998 28.3578C22.1614 28.5948 21.7253 28.4763 21.4335 28.4825C21.0884 28.4919 20.759 28.626 20.4797 28.8224C19.8397 29.2714 19.4162 30.0261 19.2562 30.7775C19.1652 31.211 19.1809 31.6569 19.1809 32.0966C19.1809 32.5612 19.1401 33.0539 19.253 33.5123C19.2687 33.5715 19.3754 33.9987 19.4413 34.0018C19.5228 34.0018 19.686 33.3189 19.7048 33.2347C19.8272 32.7483 19.8993 32.24 20.1283 31.7879C20.326 31.4012 20.6366 30.9023 21.0413 30.7058C21.3707 30.5468 21.7347 30.6092 22.0641 30.7308C22.4688 30.8804 22.8422 31.105 23.2218 31.3077C23.1841 31.2889 23.2281 30.6684 23.2281 30.631C23.2281 30.3472 23.2375 30.0604 23.2218 29.7766C23.1465 28.3983 23.0743 27.0169 22.9959 25.6387C22.9771 25.3268 22.9582 25.0181 22.9426 24.7063C22.9331 24.5348 22.9269 24.3602 22.9237 24.1887C22.9237 24.092 22.9175 23.9954 22.9175 23.8987C22.9018 23.3779 22.9018 24.3664 22.9175 23.9579C22.9457 23.222 22.9833 22.4892 23.0681 21.7533C23.3285 19.4801 23.9308 17.2069 24.9662 15.152C25.7693 13.5555 26.8768 12.1086 28.3074 11.0172C29.8228 9.86345 31.6299 9.16497 33.4998 8.83131C36.565 8.2825 39.7933 8.32616 42.8428 8.93733C42.8303 8.93733 42.8522 8.16401 42.8491 8.15777V7.63702C42.8491 7.57778 42.8491 6.85746 42.8397 6.85746C42.8303 6.85746 42.8303 7.63079 42.8334 7.63702L42.8428 7.63079Z" fill="#0C1C2D"/>
<path d="M47.004 51.5205L47.506 51.5267C47.4181 54.0307 47.3428 56.5346 47.6032 59.0355C47.4871 59.0292 47.3711 59.0199 47.255 59.0137C46.6808 56.5315 46.8628 54.0276 47.004 51.5236V51.5205Z" fill="#0C1C2D"/>
<path d="M47.0032 52.301L47.5052 52.3072V50.7761C47.3985 53.7821 47.2981 56.8162 47.6025 59.8159V58.2568C47.5523 58.2537 47.295 58.263 47.2542 58.235C47.2134 58.2069 47.1727 57.8577 47.1632 57.8047C47.113 57.5427 47.0691 57.2808 47.0315 57.0157C46.9499 56.4295 46.9028 55.8371 46.8809 55.2446C46.8746 55.0544 46.9217 54.518 46.8715 55.229C46.8809 55.0887 46.8777 54.9452 46.8809 54.8018C46.8903 54.5367 46.8997 54.2717 46.9123 54.0066C46.9405 53.4298 46.975 52.8498 47.0064 52.2729C47.0252 51.9548 47.0126 51.6336 47.0126 51.3125C47.0126 51.1597 47.0221 51.0006 47.0095 50.8479C47.0095 50.8354 47.0095 50.6951 47.0032 50.7699C46.9091 52.4039 46.8432 54.0316 46.8558 55.6687C46.8589 56.3734 46.8777 57.0812 46.9405 57.7828C46.9781 58.1913 47.0283 58.5998 47.0974 59.0021C47.1287 59.1954 47.1664 59.3856 47.2072 59.5758C47.2323 59.6881 47.2229 59.7505 47.3138 59.7941C47.3734 59.8222 47.5429 59.8097 47.6025 59.8128C47.5962 59.8128 47.615 58.3909 47.6025 58.2537C47.4958 57.2091 47.4362 56.1582 47.4331 55.1074C47.4331 55.2477 47.4331 55.0606 47.4331 55.0201C47.4331 54.8642 47.4362 54.7082 47.4393 54.5523C47.4425 54.3091 47.4487 54.0659 47.455 53.8195C47.4676 53.305 47.4864 52.7874 47.5052 52.2729C47.5084 52.145 47.5209 50.7418 47.5052 50.7418L47.0032 50.7356C47.0032 50.7356 46.9844 52.2947 47.0032 52.2947V52.301Z" fill="#0C1C2D"/>
<path d="M19.3251 34.3382C19.231 34.3725 19.1338 34.3974 19.0334 34.4068C18.8514 34.2945 18.6694 34.0887 18.8953 33.9609C19.231 33.7706 19.2687 34.1043 19.3251 34.3382Z" fill="#0C1C2D"/>
<path d="M19.3259 33.5591C19.26 33.584 19.191 33.6028 19.122 33.6152C19.1032 33.6183 19.0875 33.6215 19.0687 33.6246C19.0624 33.6246 19.053 33.6277 19.0436 33.6277C19.0341 33.6277 19.031 33.6277 19.0247 33.6215C19.0028 33.6059 18.9777 33.5903 18.9588 33.5747C18.8867 33.5186 18.8051 33.4406 18.7957 33.3439V33.372C18.7957 33.3034 18.7957 33.3658 18.802 33.5591V34.8532L18.7957 34.8812C18.802 34.8033 18.871 34.7596 18.9337 34.7253C18.9871 34.6973 19.053 34.6754 19.1126 34.691C19.2161 34.716 19.2569 34.8376 19.2851 34.928C19.304 34.9904 19.3165 35.0559 19.3291 35.1213C19.3291 35.0995 19.3322 35.0777 19.3291 35.0527C19.3291 34.9997 19.3291 34.9467 19.3291 34.8906C19.3291 34.7066 19.3291 34.5226 19.3291 34.3387C19.3291 34.1547 19.3291 33.9707 19.3291 33.7867V33.6651C19.3291 33.6308 19.3291 33.5934 19.3228 33.5591C19.3008 33.4656 19.2851 33.372 19.2506 33.2816C19.2224 33.2099 19.1722 33.135 19.0906 33.1257C19.0404 33.1194 18.9902 33.135 18.9463 33.1537C18.8898 33.1787 18.8302 33.213 18.802 33.2722C18.7988 33.2816 18.7926 33.294 18.7926 33.3034C18.7926 33.3159 18.7926 33.3315 18.7894 33.3439C18.7863 33.4125 18.7894 33.4843 18.7863 33.5529C18.7832 33.9426 18.7832 34.3324 18.7863 34.7222C18.7863 34.7846 18.7832 34.8501 18.7926 34.9124C18.802 34.9654 18.8365 35.0153 18.8741 35.0559C18.8992 35.0808 18.9243 35.1058 18.9526 35.1276C18.9683 35.1401 18.9808 35.1494 18.9965 35.1588C19.0028 35.165 19.0122 35.1681 19.0216 35.1744C19.031 35.1806 19.0341 35.1837 19.0467 35.1806C19.1408 35.1681 19.2349 35.1463 19.3259 35.112C19.3259 35.0902 19.3291 35.0683 19.3259 35.0434C19.3259 34.9904 19.3259 34.9374 19.3259 34.8812C19.3259 34.6973 19.3259 34.5133 19.3259 34.3293C19.3259 34.1453 19.3259 33.9614 19.3259 33.7774V33.6558C19.3259 33.6215 19.3259 33.584 19.3196 33.5497L19.3259 33.5591Z" fill="#0C1C2D"/>
<path d="M47.2556 59.0129C47.3717 59.0192 47.4878 59.0285 47.6039 59.0348C47.789 59.1595 47.9333 59.4308 47.7482 59.5119C47.2964 59.7083 47.2964 59.3061 47.2556 59.0129Z" fill="#0C1C2D"/>
<path d="M47.256 59.7917L47.5038 59.8073H47.5634C47.5823 59.8136 47.5979 59.8104 47.6136 59.8229C47.6356 59.8385 47.6607 59.8572 47.6795 59.879C47.7517 59.9508 47.8238 60.0474 47.8301 60.1503V60.1316L47.8238 59.3801V59.3864L47.8301 58.6349V58.6162C47.8238 58.7066 47.7454 58.7378 47.6701 58.7596C47.6011 58.7814 47.5258 58.7939 47.4568 58.7658C47.3407 58.7191 47.3062 58.5756 47.2873 58.4665C47.2748 58.3885 47.2654 58.3106 47.256 58.2295C47.256 58.2513 47.2528 58.2731 47.256 58.2981C47.256 58.3511 47.256 58.4041 47.256 58.4602C47.256 58.6442 47.256 58.8282 47.256 59.0122C47.256 59.1962 47.256 59.3801 47.256 59.5641C47.256 59.6389 47.2497 59.7169 47.2622 59.7917C47.2779 59.8978 47.2842 60.0069 47.3124 60.1129C47.3344 60.1971 47.3721 60.2907 47.4599 60.3281C47.507 60.3468 47.5603 60.3468 47.6105 60.3374C47.645 60.3312 47.6795 60.3218 47.714 60.3094C47.7454 60.2969 47.7768 60.2844 47.8019 60.2626C47.8207 60.2439 47.8301 60.2221 47.8364 60.1971C47.8458 60.1535 47.8427 60.1036 47.8427 60.0599C47.8489 59.6514 47.8489 59.2398 47.8427 58.8313C47.8427 58.7471 47.8458 58.6598 47.8364 58.5756C47.8364 58.56 47.8301 58.5476 47.827 58.532C47.8176 58.5008 47.8019 58.4696 47.7831 58.4415C47.7611 58.4072 47.736 58.3729 47.7078 58.3418C47.6795 58.3106 47.6481 58.2794 47.6136 58.2607C47.5917 58.2482 47.554 58.2544 47.5289 58.2513L47.4442 58.2451L47.2591 58.2326C47.2591 58.2326 47.2497 58.9529 47.2528 59.0122C47.2528 59.1962 47.2528 59.3801 47.2528 59.5641C47.2528 59.5859 47.2528 59.7917 47.2591 59.7917H47.256Z" fill="#0C1C2D"/>
<path d="M46.625 49.3751C46.625 49.2784 46.6375 49.1849 46.6595 49.0913C46.9419 49.0445 47.2242 49.0009 47.2054 49.4312C47.0109 49.4125 46.8195 49.3938 46.625 49.3751Z" fill="#0C1C2D"/>
<path d="M46.6279 50.0479C46.6279 50.1696 46.6279 50.0667 46.6279 50.0386V50.0667C46.6279 50.0168 46.6373 49.9638 46.6467 49.9139C46.6467 49.9045 46.6498 49.892 46.653 49.8827C46.6593 49.8702 46.6593 49.8702 46.6718 49.8702C46.6875 49.8702 46.7 49.864 46.7157 49.864C46.7722 49.8546 46.8287 49.8484 46.8852 49.8453C46.9761 49.8421 47.0797 49.8577 47.1393 49.9326C47.1801 49.9856 47.1958 50.0511 47.1989 50.1165V50.0885C47.1989 50.0885 47.1989 50.1041 47.1989 50.1134C47.224 50.6186 47.2177 48.1739 47.1989 48.6822V48.6541C47.0075 48.6354 46.8161 48.6167 46.6216 48.598C46.6216 48.598 46.6153 48.863 46.6153 48.8256C46.6153 49.0096 46.6153 49.1935 46.6153 49.3775C46.6153 49.5615 46.6153 49.7455 46.6153 49.9295C46.6153 49.9513 46.6153 50.1571 46.6216 50.1571C46.8161 50.1758 47.0075 50.1945 47.202 50.2132V50.1852C47.2114 49.9918 47.2083 49.7985 47.2114 49.6052C47.2114 49.2777 47.2177 48.9472 47.2052 48.6198C47.2052 48.5699 47.1989 48.52 47.1863 48.4732C47.1707 48.414 47.1393 48.361 47.0859 48.3267C46.9824 48.2612 46.835 48.2861 46.722 48.3048C46.7032 48.3048 46.6781 48.3048 46.6624 48.3142C46.653 48.3173 46.6561 48.3142 46.653 48.3267C46.6498 48.336 46.6467 48.3485 46.6467 48.3579C46.6436 48.3734 46.6404 48.389 46.6373 48.4078C46.6216 48.5075 46.6185 48.6073 46.6185 48.7071C46.6122 49.0626 46.6122 49.4181 46.6185 49.7735C46.6185 49.892 46.6153 50.0136 46.6216 50.1321V50.1602C46.6279 50.1259 46.6279 50.0885 46.6279 50.0542V50.0479Z" fill="#0C1C2D"/>
<path d="M49.4262 61.22C49.1564 61.2356 48.9274 61.167 48.7705 60.93L48.8646 60.8364C49.1188 60.8645 49.3384 60.9424 49.445 61.1981L49.4231 61.22H49.4262Z" fill="#0C1C2D"/>
<path d="M49.4259 60.4404C49.3004 60.4467 49.1718 60.4373 49.0557 60.3905C48.9396 60.3438 48.8424 60.2565 48.7702 60.1504V61.7096C48.7702 61.7096 48.7984 61.6815 48.8141 61.669C48.8298 61.6565 48.8486 61.6254 48.8643 61.6191C48.8769 61.6129 48.8988 61.6191 48.9114 61.6223C48.9333 61.6223 48.9553 61.6285 48.9741 61.6316C49.0149 61.6378 49.0526 61.6472 49.0902 61.6597C49.2533 61.7127 49.3757 61.8218 49.4447 61.9777V60.4186L49.4228 60.4404C49.4228 60.4623 49.4196 60.4841 49.4228 60.509C49.4228 60.562 49.4228 60.6151 49.4228 60.6712C49.4228 60.8552 49.4228 61.0391 49.4228 61.2231C49.4228 61.4071 49.4228 61.5911 49.4228 61.775V61.8967C49.4228 61.931 49.4228 61.9684 49.429 62.0027L49.451 61.9808C49.451 61.959 49.4541 61.9372 49.451 61.9122C49.451 61.8592 49.451 61.8062 49.451 61.7501C49.451 61.5661 49.451 61.3821 49.451 61.1982C49.451 61.0142 49.451 60.8302 49.451 60.6462V60.5246C49.451 60.4903 49.451 60.4529 49.4447 60.4186C49.3757 60.2627 49.2533 60.1536 49.0902 60.1005C49.0526 60.0881 49.0118 60.0787 48.9741 60.0725C48.9522 60.0694 48.9333 60.0662 48.9114 60.0631C48.8988 60.0631 48.8737 60.0538 48.8643 60.06C48.8486 60.0662 48.8267 60.0974 48.8141 60.1099C48.7984 60.1224 48.7859 60.138 48.7702 60.1504C48.7702 60.1723 48.7671 60.1941 48.7702 60.219C48.7702 60.272 48.7702 60.3251 48.7702 60.3812C48.7702 60.5652 48.7702 60.7491 48.7702 60.9331C48.7702 61.1171 48.7702 61.3011 48.7702 61.485V61.6067C48.7702 61.641 48.7702 61.6784 48.7765 61.7127C48.8455 61.8187 48.9427 61.906 49.062 61.9528C49.1812 61.9996 49.3067 62.0089 49.4322 62.0027C49.4385 62.0027 49.4385 61.7376 49.4385 61.775C49.4385 61.5911 49.4385 61.4071 49.4385 61.2231C49.4385 61.167 49.4322 60.4436 49.4322 60.4436L49.4259 60.4404Z" fill="#0C1C2D"/>
<path d="M48.1225 60.3388C48.0096 60.2453 47.8558 60.1548 48.0597 60.0145C48.0817 59.9989 48.2009 60.1237 48.2762 60.1829C48.226 60.2359 48.1758 60.2858 48.1256 60.3388H48.1225Z" fill="#0C1C2D"/>
<path d="M48.1213 59.5596C48.0868 59.5315 48.0491 59.5034 48.0146 59.4723C47.9864 59.4473 47.9613 59.413 47.9581 59.3756V59.3974L47.9644 60.3578L47.9581 60.9004V60.9222C47.9581 60.8817 47.9895 60.8505 48.0178 60.8256C48.0272 60.8162 48.0397 60.8069 48.0491 60.8006C48.0554 60.7975 48.0554 60.7944 48.0617 60.7944C48.0711 60.7944 48.0836 60.8037 48.0899 60.81C48.1558 60.8536 48.2091 60.916 48.2687 60.9659V59.4068C48.2185 59.4598 48.1683 59.5097 48.1181 59.5627C48.1181 59.5845 48.115 59.6063 48.1181 59.6313C48.1181 59.6843 48.1181 59.7373 48.1181 59.7934C48.1181 59.9774 48.1181 60.1614 48.1181 60.3454C48.1181 60.5293 48.1181 60.7133 48.1181 60.8973V61.0189C48.1181 61.0532 48.1181 61.0906 48.1244 61.1249C48.1746 61.0719 48.2248 61.022 48.275 60.969C48.275 60.9472 48.2782 60.9254 48.275 60.9004C48.275 60.8474 48.275 60.7944 48.275 60.7383C48.275 60.5543 48.275 60.3703 48.275 60.1863C48.275 60.0023 48.275 59.8184 48.275 59.6344V59.5128C48.275 59.4785 48.275 59.4411 48.2687 59.4068C48.2248 59.3725 48.184 59.3319 48.1432 59.2945C48.1244 59.2789 48.1056 59.2633 48.0868 59.2477C48.0774 59.2415 48.0648 59.2321 48.0523 59.2384C48.024 59.254 47.9958 59.282 47.977 59.307C47.9581 59.3319 47.955 59.36 47.9519 59.3943C47.9519 59.4442 47.9519 59.5564 47.9487 59.597C47.9487 59.7124 47.9487 59.8277 47.9487 59.94C47.9487 60.1926 47.9487 60.4483 47.9487 60.7008C47.9487 60.7414 47.9487 60.8536 47.9519 60.9035C47.9519 60.9129 47.9519 60.9254 47.9519 60.9347C47.9519 60.9409 47.9519 60.9441 47.9519 60.9503C47.9581 60.9721 47.9707 60.9908 47.9832 61.0064C48.0209 61.0501 48.0679 61.0844 48.1119 61.1187C48.1119 61.0969 48.115 61.075 48.1119 61.0501C48.1119 60.9971 48.1119 60.9441 48.1119 60.8879C48.1119 60.704 48.1119 60.52 48.1119 60.336C48.1119 60.152 48.1119 59.9681 48.1119 59.7841V59.6625C48.1119 59.6282 48.1119 59.5907 48.1056 59.5564L48.1213 59.5596Z" fill="#0C1C2D"/>
<path d="M48.4445 60.6439C48.3378 60.541 48.2311 60.4412 48.1213 60.3415C48.1715 60.2884 48.2217 60.2386 48.2719 60.1855C48.3755 60.2916 48.4759 60.4007 48.5794 60.5067C48.5323 60.5504 48.4884 60.5972 48.4445 60.6439Z" fill="#0C1C2D"/>
<path d="M48.4442 59.864C48.3375 59.7611 48.2308 59.6613 48.121 59.5615V61.1206C48.1587 61.0832 48.1963 61.0427 48.234 61.0052L48.2622 60.9772L48.2716 60.9678L48.2779 60.974C48.2779 60.974 48.2873 60.9834 48.2904 60.9865C48.3093 61.0084 48.3312 61.0271 48.3501 61.0489C48.4254 61.13 48.5038 61.2079 48.5791 61.289V59.7299C48.532 59.7735 48.4881 59.8203 48.4442 59.8671C48.4442 59.8889 48.441 59.9107 48.4442 59.9357C48.4442 59.9887 48.4442 60.0417 48.4442 60.0978C48.4442 60.2818 48.4442 60.4658 48.4442 60.6498C48.4442 60.8337 48.4442 61.0177 48.4442 61.2017V61.3233C48.4442 61.3576 48.4442 61.395 48.4504 61.4293C48.4944 61.3825 48.5383 61.3358 48.5854 61.2921C48.5854 61.2703 48.5885 61.2485 48.5854 61.2235C48.5854 61.1705 48.5854 61.1175 48.5854 61.0614C48.5854 60.8774 48.5854 60.6934 48.5854 60.5094C48.5854 60.3255 48.5854 60.1415 48.5854 59.9575V59.8359C48.5854 59.8016 48.5854 59.7642 48.5791 59.7299C48.5038 59.6488 48.4285 59.5708 48.3501 59.4898C48.3312 59.4711 48.3124 59.4492 48.2936 59.4305L48.281 59.418L48.2716 59.4087L48.2653 59.4149C48.2653 59.4149 48.2465 59.4368 48.2371 59.443C48.1995 59.4835 48.1587 59.5241 48.121 59.5615C48.121 59.5833 48.1179 59.6051 48.121 59.6301C48.121 59.6831 48.121 59.7361 48.121 59.7922C48.121 59.9762 48.121 60.1602 48.121 60.3442C48.121 60.5281 48.121 60.7121 48.121 60.8961V61.0177C48.121 61.052 48.121 61.0894 48.1273 61.1237C48.234 61.2235 48.3438 61.3264 48.4504 61.4262C48.4504 61.4044 48.4536 61.3825 48.4504 61.3576C48.4504 61.3046 48.4504 61.2516 48.4504 61.1955C48.4504 61.0115 48.4504 60.8275 48.4504 60.6435C48.4504 60.4595 48.4504 60.2756 48.4504 60.0916V59.97C48.4504 59.9357 48.4505 59.8983 48.4442 59.864Z" fill="#0C1C2D"/>
<path d="M49.4475 61.2009L49.5856 61.36C49.5322 61.3132 49.4789 61.2664 49.4287 61.2228L49.4507 61.2009H49.4475Z" fill="#0C1C2D"/>
<path d="M49.4471 61.9797L49.5852 62.1388V60.5796C49.5319 60.5329 49.4785 60.4861 49.4283 60.4424V62.0015C49.4283 62.0015 49.4409 61.9891 49.4503 61.9797C49.4503 61.9579 49.4534 61.9361 49.4503 61.9111C49.4503 61.8581 49.4503 61.8051 49.4503 61.749C49.4503 61.565 49.4503 61.381 49.4503 61.197C49.4503 61.0131 49.4503 60.8291 49.4503 60.6451V60.5235C49.4503 60.4892 49.4503 60.4518 49.444 60.4175C49.4377 60.4237 49.4315 60.4331 49.422 60.4393C49.422 60.4611 49.4189 60.483 49.422 60.5079C49.422 60.5609 49.422 60.6139 49.422 60.6701C49.422 60.854 49.422 61.038 49.422 61.222C49.422 61.406 49.422 61.5899 49.422 61.7739V61.8955C49.422 61.9298 49.4221 61.9672 49.4283 62.0015C49.4817 62.0483 49.535 62.092 49.5852 62.1388C49.5852 62.1169 49.5883 62.0951 49.5852 62.0701C49.5852 62.0171 49.5852 61.9641 49.5852 61.908C49.5852 61.724 49.5852 61.54 49.5852 61.3561C49.5852 61.1721 49.5852 60.9881 49.5852 60.8041V60.6825C49.5852 60.6482 49.5852 60.6108 49.5789 60.5765L49.4409 60.4175C49.4409 60.4393 49.4377 60.4611 49.4409 60.4861C49.4409 60.5391 49.4409 60.5921 49.4409 60.6482C49.4409 60.8322 49.4409 61.0162 49.4409 61.2002C49.4409 61.3841 49.4409 61.5681 49.4409 61.7521V61.8737C49.4409 61.908 49.4409 61.9454 49.4471 61.9797Z" fill="#0C1C2D"/>
<path d="M48.5807 60.5085C48.6748 60.6208 48.7721 60.7299 48.8693 60.8391L48.7752 60.9326C48.6654 60.836 48.5556 60.7393 48.4458 60.6457C48.4897 60.599 48.5336 60.5553 48.5807 60.5085Z" fill="#0C1C2D"/>
<path d="M48.5803 61.2873C48.6744 61.3996 48.7717 61.5087 48.869 61.6179V60.0588C48.8533 60.0743 48.8344 60.093 48.8188 60.1086L48.7874 60.1398C48.7874 60.1398 48.778 60.1523 48.7592 60.1398C48.6556 60.0494 48.5521 59.9558 48.4454 59.8654V61.4245C48.4893 61.3778 48.5333 61.3341 48.5803 61.2873C48.5803 61.2655 48.5835 61.2437 48.5803 61.2187C48.5803 61.1657 48.5803 61.1127 48.5803 61.0566C48.5803 60.8726 48.5803 60.6886 48.5803 60.5047C48.5803 60.3207 48.5803 60.1367 48.5803 59.9527V59.8311C48.5803 59.7968 48.5803 59.7594 48.574 59.7251C48.527 59.7688 48.4831 59.8155 48.4391 59.8623C48.4391 59.8841 48.436 59.906 48.4391 59.9309C48.4391 59.9839 48.4391 60.0369 48.4391 60.093C48.4391 60.277 48.4391 60.461 48.4391 60.645C48.4391 60.829 48.4391 61.0129 48.4391 61.1969V61.3185C48.4391 61.3528 48.4391 61.3902 48.4454 61.4245C48.5489 61.515 48.6525 61.6085 48.7592 61.6989C48.7748 61.7145 48.7717 61.7145 48.7874 61.6989L48.8188 61.6678C48.8344 61.6522 48.8533 61.6335 48.869 61.6179C48.869 61.596 48.8721 61.5742 48.869 61.5493C48.869 61.4963 48.869 61.4432 48.869 61.3871C48.869 61.2031 48.869 61.0192 48.869 60.8352C48.869 60.6512 48.869 60.4672 48.869 60.2833V60.1617C48.869 60.1273 48.869 60.0899 48.8627 60.0556C48.7654 59.9465 48.6713 59.8342 48.574 59.7251C48.574 59.7469 48.5709 59.7688 48.574 59.7937C48.574 59.8467 48.574 59.8997 48.574 59.9558C48.574 60.1398 48.574 60.3238 48.574 60.5078C48.574 60.6917 48.574 60.8757 48.574 61.0597V61.1813C48.574 61.2156 48.574 61.253 48.5803 61.2873Z" fill="#0C1C2D"/>
<path d="M47.3802 28.0802C45.5919 28.13 43.813 28.0614 42.0498 28.4107C43.7659 27.3692 45.5542 27.363 47.3802 28.0802Z" fill="#0C1C2D"/>
<path d="M47.38 27.3012C45.6011 27.3479 43.8065 27.2918 42.0496 27.6317V29.1908C42.8496 28.7137 43.7375 28.4113 44.6724 28.3645C45.6074 28.3177 46.5141 28.5266 47.3768 28.8603C47.3455 28.8478 47.3831 28.1493 47.3831 28.0807C47.3831 28.0059 47.4364 27.323 47.3768 27.3012C46.5141 26.9675 45.6011 26.7617 44.6724 26.8054C43.7438 26.849 42.8496 27.1515 42.0496 27.6317C42.037 27.6411 42.0433 27.8843 42.0433 27.8593C42.0433 28.0433 42.0433 28.2273 42.0433 28.4113C42.0433 28.4705 42.0684 29.1877 42.0496 29.1908C43.8065 28.8509 45.5979 28.9102 47.38 28.8603C47.4051 28.8603 47.38 27.3012 47.38 27.3012Z" fill="#0C1C2D"/>
<path d="M33.3944 28.4421C31.5998 27.9588 29.7582 28.2644 27.5244 28.1989C30.2194 27.2728 31.7693 27.3476 33.3944 28.4421Z" fill="#0C1C2D"/>
<path d="M33.3935 27.6623C31.486 27.1602 29.4686 27.4721 27.5235 27.4191V28.9782C28.5902 28.6133 29.7196 28.2922 30.8585 28.3421C31.784 28.3826 32.628 28.7131 33.3935 29.2214C33.3872 29.2183 33.3998 28.9626 33.3998 28.9938C33.3998 28.8098 33.3998 28.6258 33.3998 28.4418C33.3998 28.2579 33.3998 28.0739 33.3998 27.8899C33.3998 27.8556 33.4154 27.6747 33.3935 27.6623C32.628 27.154 31.784 26.8235 30.8585 26.7829C29.7196 26.733 28.5902 27.0573 27.5235 27.4191C27.4325 27.4502 27.5643 28.9782 27.5235 28.9782C29.4718 29.0281 31.486 28.7194 33.3935 29.2214C33.3747 29.2152 33.3998 28.5042 33.3998 28.4418C33.3998 28.3764 33.4374 27.6747 33.3935 27.6623Z" fill="#0C1C2D"/>
<path d="M40.3334 47.0906C38.6706 48.0822 36.9858 48.0448 35.2854 47.2028C36.967 47.1935 38.6549 47.3244 40.3334 47.0906Z" fill="#0C1C2D"/>
<path d="M40.334 46.3103C39.5685 46.7593 38.7183 47.0431 37.8241 47.0556C36.93 47.068 36.0798 46.8092 35.286 46.4257V47.9848C36.9708 47.9786 38.6587 48.0971 40.334 47.8725C40.4156 47.8601 40.2775 46.3228 40.334 46.3134C38.6587 46.5379 36.9708 46.4226 35.286 46.4257C35.2766 46.4257 35.2766 47.146 35.2797 47.2052C35.2797 47.3892 35.2797 47.5732 35.2797 47.7572C35.2797 47.7852 35.2672 47.9754 35.286 47.9848C36.0798 48.3715 36.9363 48.624 37.8241 48.6147C38.712 48.6053 39.5685 48.3216 40.334 47.8694C40.3466 47.8632 40.3403 47.6169 40.3403 47.6418C40.3403 47.4578 40.3403 47.2738 40.3403 47.0899C40.3403 46.9059 40.3403 46.7219 40.3403 46.5379C40.3403 46.5099 40.3215 46.3165 40.334 46.3103Z" fill="#0C1C2D"/>
<path d="M39.9289 44.758C39.3422 45.2039 35.7311 45.2039 35.113 44.7517C36.7507 44.5459 38.3006 44.4399 39.9289 44.758Z" fill="#0C1C2D"/>
<path d="M39.9289 43.9788C39.6748 44.1627 39.292 44.1939 38.9908 44.2313C38.5077 44.2937 38.0182 44.3124 37.5319 44.3124C37.0456 44.3124 36.5499 44.2906 36.0668 44.2282C35.7593 44.1877 35.3766 44.1534 35.113 43.9694V45.5285C36.7162 45.329 38.332 45.2292 39.9289 45.5348C39.9163 45.5348 39.9383 44.8145 39.9351 44.7552C39.932 44.696 39.9634 43.9819 39.9289 43.9756C38.332 43.6701 36.7162 43.7698 35.113 43.9694C35.0911 43.9694 35.1036 44.6897 35.1068 44.749C35.1068 44.9329 35.1068 45.1169 35.1068 45.3009C35.1068 45.3352 35.0911 45.5129 35.113 45.5285C35.3766 45.7125 35.7593 45.7468 36.0668 45.7873C36.5531 45.8497 37.0425 45.8715 37.5319 45.8715C38.0214 45.8715 38.5077 45.8528 38.9908 45.7905C39.292 45.753 39.6716 45.7187 39.9289 45.5379C39.9446 45.5285 39.9351 45.2884 39.9351 45.3103C39.9351 45.1263 39.9351 44.9423 39.9351 44.7583C39.9351 44.5743 39.9351 44.3904 39.9351 44.2064C39.9351 44.1752 39.9132 43.9881 39.9289 43.9788Z" fill="#0C1C2D"/>
<path d="M33.6858 28.6122C33.758 28.5654 33.8678 28.475 33.8803 28.4843C33.9619 28.5654 34.0246 28.6652 34.0936 28.7587C34.0089 28.7774 33.9148 28.8304 33.8427 28.8086C33.7768 28.7868 33.7391 28.6839 33.6858 28.6122Z" fill="#0C1C2D"/>
<path d="M33.6855 29.392C33.7231 29.367 33.7608 29.3359 33.8016 29.3078C33.8172 29.2953 33.8329 29.286 33.8518 29.2735C33.858 29.2704 33.8706 29.261 33.88 29.261C33.8894 29.261 33.8957 29.2766 33.902 29.2829C33.9114 29.2922 33.9208 29.3047 33.9302 29.314C33.949 29.3359 33.9678 29.3608 33.9867 29.3858C34.0243 29.4356 34.0588 29.4887 34.0933 29.5386V27.9794C34.0463 27.9919 33.9992 28.0106 33.9522 28.0231C33.9145 28.0324 33.8674 28.0418 33.8329 28.0231C33.7984 28.0075 33.7765 27.9732 33.7576 27.942C33.7325 27.9046 33.7137 27.864 33.6855 27.8297C33.6855 27.8516 33.6823 27.8734 33.6855 27.8984C33.6855 27.9514 33.6855 28.0044 33.6855 28.0605C33.6855 28.2445 33.6855 28.4285 33.6855 28.6124C33.6855 28.7964 33.6855 28.9804 33.6855 29.1644V29.286C33.6855 29.3203 33.6855 29.3577 33.6918 29.392C33.7169 29.4294 33.7388 29.4668 33.7639 29.5043C33.7827 29.5354 33.8047 29.5697 33.8392 29.5853C33.8769 29.604 33.9208 29.5947 33.9584 29.5853C34.0055 29.5729 34.0494 29.5541 34.0996 29.5417C34.0996 29.5198 34.1027 29.498 34.0996 29.4731C34.0996 29.4201 34.0996 29.367 34.0996 29.3109C34.0996 29.1269 34.0996 28.943 34.0996 28.759C34.0996 28.575 34.0996 28.391 34.0996 28.2071V28.0854C34.0996 28.0511 34.0996 28.0137 34.0933 27.9794C34.0557 27.9295 34.0212 27.8765 33.9867 27.8266C33.9678 27.8017 33.949 27.7767 33.9302 27.7549C33.9208 27.7456 33.9114 27.7331 33.902 27.7237C33.8988 27.7175 33.8863 27.705 33.88 27.7019C33.8706 27.7019 33.858 27.7113 33.8518 27.7144C33.8361 27.7237 33.8172 27.7362 33.8016 27.7487C33.7639 27.7767 33.7263 27.8048 33.6855 27.8329C33.6855 27.8547 33.6823 27.8765 33.6855 27.9015C33.6855 27.9545 33.6855 28.0075 33.6855 28.0636C33.6855 28.2476 33.6855 28.4316 33.6855 28.6155C33.6855 28.7995 33.6855 28.9835 33.6855 29.1675V29.2891C33.6855 29.3234 33.6855 29.3608 33.6918 29.3951L33.6855 29.392Z" fill="#0C1C2D"/>
<path d="M26.7742 73.9782V75.4611H22.9552V77.8102H25.8818V79.267H22.9552V83.1384H21.1179V73.9782H26.7742ZM29.9143 76.9966C30.1506 76.6116 30.4568 76.3098 30.833 76.0911C31.2179 75.8723 31.6554 75.763 32.1453 75.763V77.6921H31.6598C31.0823 77.6921 30.6449 77.8277 30.3474 78.099C30.0587 78.3702 29.9143 78.8426 29.9143 79.5163V83.1384H28.077V75.868H29.9143V76.9966ZM36.6113 83.2565C35.9113 83.2565 35.2814 83.1034 34.7215 82.7972C34.1615 82.4822 33.7197 82.0404 33.396 81.4717C33.081 80.903 32.9235 80.2469 32.9235 79.5032C32.9235 78.7595 33.0854 78.1033 33.4091 77.5347C33.7416 76.966 34.1921 76.5285 34.7608 76.2223C35.3295 75.9073 35.9638 75.7498 36.6638 75.7498C37.3637 75.7498 37.998 75.9073 38.5667 76.2223C39.1354 76.5285 39.5816 76.966 39.9053 77.5347C40.2377 78.1033 40.404 78.7595 40.404 79.5032C40.404 80.2469 40.2334 80.903 39.8922 81.4717C39.5597 82.0404 39.1047 82.4822 38.5273 82.7972C37.9586 83.1034 37.3199 83.2565 36.6113 83.2565ZM36.6113 81.6555C36.9437 81.6555 37.2543 81.5767 37.543 81.4192C37.8405 81.253 38.0767 81.008 38.2517 80.6843C38.4267 80.3606 38.5142 79.9669 38.5142 79.5032C38.5142 78.812 38.3304 78.2827 37.963 77.9152C37.6043 77.539 37.1624 77.3509 36.6375 77.3509C36.1126 77.3509 35.6707 77.539 35.312 77.9152C34.9621 78.2827 34.7871 78.812 34.7871 79.5032C34.7871 80.1944 34.9577 80.7281 35.2989 81.1043C35.6489 81.4717 36.0863 81.6555 36.6113 81.6555ZM45.7807 75.763C46.6468 75.763 47.3467 76.0386 47.8804 76.5898C48.4141 77.1322 48.681 77.8934 48.681 78.8733V83.1384H46.8437V79.1226C46.8437 78.5452 46.6993 78.1033 46.4106 77.7971C46.1219 77.4822 45.7282 77.3247 45.2295 77.3247C44.722 77.3247 44.3196 77.4822 44.0221 77.7971C43.7334 78.1033 43.589 78.5452 43.589 79.1226V83.1384H41.7517V75.868H43.589V76.7735C43.834 76.4585 44.1446 76.2135 44.5208 76.0386C44.9057 75.8548 45.3257 75.763 45.7807 75.763ZM52.5673 77.3772V80.8943C52.5673 81.1393 52.6242 81.3186 52.7379 81.4324C52.8604 81.5373 53.0616 81.5898 53.3416 81.5898H54.1946V83.1384H53.0397C51.4912 83.1384 50.7169 82.386 50.7169 80.8812V77.3772H49.8507V75.868H50.7169V74.07H52.5673V75.868H54.1946V77.3772H52.5673Z" fill="black"/>
</svg>
