<svg width="75" height="83" viewBox="0 0 75 83" fill="none" xmlns="http://www.w3.org/2000/svg">
<path d="M31.0211 8.39956C30.9053 8.4665 30.7975 8.55752 30.6709 8.595C24.9038 10.2335 22.3448 15.007 21.9138 20.9024C21.7226 23.5368 21.5421 26.2569 23.0479 28.7012C23.4815 29.4053 23.2957 30.163 22.9617 30.8805C22.1509 32.6154 21.3724 34.369 20.5239 36.0851C20.0579 37.0275 20.4296 37.3889 21.3239 37.5335C21.8546 37.6192 22.396 37.6727 22.9078 37.8253C23.697 38.0636 24.1576 38.5642 23.8075 39.4343C23.4627 40.2884 23.6809 40.8747 24.5186 41.2709C24.7745 41.3914 25.254 41.5547 25.0196 41.9108C24.2681 43.046 25.0277 43.4823 25.8493 43.9455C26.2749 44.1865 26.1725 44.6336 26.2264 45.0244C26.5308 47.2144 27.1853 47.774 29.4022 47.7419C30.7329 47.7231 31.945 47.2466 33.1437 46.7459C35.005 45.9668 36.7775 45.0137 38.4906 43.9509C40.1607 42.9148 41.8389 41.884 43.3958 40.3339C43.2908 41.3191 42.6928 41.7287 42.1567 42.1062C40.8799 43.0085 39.5843 43.9 38.232 44.6818C37.3701 45.1797 36.7398 45.6001 37.4751 46.6549C37.6179 46.8584 37.6071 47.1689 37.6691 47.4286C37.5236 47.4367 37.3755 47.442 37.23 47.45C36.5808 45.6938 36.5916 45.7205 34.865 46.521C32.9578 47.4045 31.0669 48.3683 28.8635 48.2532C26.916 48.1515 26.2291 47.6 25.8331 45.6964C25.6688 44.904 25.1193 44.3685 24.7637 43.7394C24.0984 42.556 23.0963 41.2468 23.2526 39.8814C23.3953 38.6231 23.0505 38.2831 21.9892 38.1439C21.5044 38.0796 21.0114 37.9966 20.5508 37.8387C19.7885 37.5763 19.4976 37.0917 19.8828 36.2832C20.7259 34.5135 21.4936 32.7064 22.369 30.9501C22.835 30.0157 22.6842 29.2126 22.3475 28.2809C20.206 22.3508 21.1219 16.7821 24.7502 11.7167C26.221 9.66323 28.5375 8.64052 30.9834 8.01404L31.0265 8.40224L31.0211 8.39956Z" fill="#0C1C2D"/>
<path d="M31.0209 7.72993C30.4875 8.05923 29.8276 8.17703 29.2458 8.41798C28.6989 8.64555 28.1656 8.91328 27.6592 9.22116C26.7245 9.79142 25.8814 10.5036 25.1649 11.3282C23.678 13.0389 22.7837 15.1754 22.3123 17.3707C22.0429 18.621 21.9271 19.8874 21.8463 21.1591C21.752 22.6449 21.7035 24.1683 21.8516 25.6515C21.9271 26.4065 22.0752 27.1534 22.3284 27.8683C22.447 28.2002 22.5843 28.5242 22.7459 28.8374C22.8375 29.0168 22.9426 29.1882 23.0422 29.3648C23.0907 29.4532 23.1392 29.5389 23.1769 29.6299C23.2227 29.7423 23.2227 29.911 23.2793 30.0101C23.2712 29.9967 23.3574 28.9365 23.2577 29.33C23.2389 29.4023 23.2254 29.4773 23.2066 29.5496C23.1554 29.737 23.0854 29.919 23.0072 30.0957C22.8348 30.492 22.6436 30.8775 22.4631 31.2711C22.0995 32.0609 21.7358 32.8533 21.3668 33.6431C21.1648 34.0768 20.9574 34.5105 20.7499 34.9389C20.5883 35.2736 20.3701 35.6162 20.3243 35.9937C20.2732 36.4087 20.3082 36.8531 20.3136 37.2708C20.3163 37.501 20.3243 37.7072 20.4994 37.8785C20.688 38.0633 20.9762 38.1329 21.2267 38.1811C21.6846 38.2694 22.148 38.3069 22.6032 38.4113C23.1931 38.5478 23.8557 38.8129 23.9177 39.4956V39.4046C23.9689 38.3765 23.9608 38.0686 23.8881 38.4863C23.8746 38.5478 23.8557 38.6094 23.8369 38.6683C23.8046 38.762 23.7642 38.8531 23.7345 38.9494C23.678 39.1235 23.651 39.2975 23.6429 39.4795C23.6214 39.9641 23.581 40.4996 23.6591 40.9841C23.7157 41.3429 23.9554 41.6106 24.2571 41.8007C24.5076 41.9587 25.0005 42.0497 25.076 42.3763V41.0618C25.0679 41.2599 24.8739 41.4527 24.8012 41.6347C24.7393 41.7873 24.7096 41.9426 24.7042 42.1059C24.6881 42.5691 24.6288 43.1072 24.7231 43.565C24.7851 43.8676 25.0194 44.0871 25.2618 44.2584C25.5474 44.4619 25.9918 44.5904 26.1292 44.9385C26.2558 45.2544 26.2127 45.6693 26.2693 46.0067C26.3258 46.344 26.3959 46.6653 26.509 46.9812C26.6787 47.4471 26.9588 47.8593 27.4087 48.0949C27.9259 48.3653 28.5481 48.4028 29.1192 48.4082C30.1401 48.4189 31.1098 48.1886 32.0633 47.8379C34.0566 47.1044 35.9638 46.1272 37.7847 45.0402C39.7645 43.8595 41.7417 42.6226 43.3875 41.0002V39.6616C43.2636 40.6441 42.5956 41.1207 41.836 41.6535C40.8662 42.3335 39.8884 43.0028 38.8756 43.6212C38.2965 43.9746 37.1975 44.3682 37.1409 45.1607C37.1167 45.4846 37.1355 45.8166 37.1382 46.1432C37.1382 46.3253 37.1274 46.5154 37.1651 46.6947C37.2163 46.933 37.3537 47.1124 37.4668 47.3212C37.5988 47.5622 37.6069 47.8299 37.6608 48.0949V46.7563C37.5907 46.759 37.2756 46.8152 37.2217 46.7777C37.1732 46.7429 37.1274 46.5207 37.1059 46.4699C37.0385 46.2932 36.9739 46.1138 36.8958 45.9424C36.8069 45.7443 36.7018 45.498 36.5025 45.3856C36.3193 45.2838 36.1038 45.3347 35.9153 45.3936C35.5328 45.5167 35.1664 45.7068 34.8028 45.8755C32.7314 46.8393 30.6249 47.8272 28.2734 47.5354C27.6107 47.4524 26.9427 47.2596 26.5036 46.7242C25.9541 46.0495 25.9783 45.1767 25.612 44.4271C25.3911 43.972 25.0598 43.5864 24.8012 43.1527C24.5157 42.6735 24.2248 42.1969 23.9527 41.7124C23.6806 41.2278 23.4274 40.7164 23.3035 40.1703C23.2712 40.0337 23.2524 39.8972 23.2362 39.758C23.1742 39.2225 23.1958 40.9386 23.2443 40.4996C23.2497 40.4514 23.255 40.4032 23.2577 40.3523C23.2766 40.1007 23.2766 39.8463 23.2766 39.5947C23.2766 39.1288 23.3628 38.5264 23.1581 38.0847C23.0099 37.7661 22.6948 37.6215 22.3688 37.5412C21.5742 37.3511 19.7991 37.418 19.7021 36.2909L19.7075 36.7835L19.7183 37.3966L19.7371 37.3136C19.7587 37.2574 19.7694 37.1958 19.791 37.1369C19.8368 37.0111 19.8987 36.8933 19.9553 36.7728C20.0954 36.4783 20.2328 36.1811 20.3701 35.884C20.6449 35.2896 20.9116 34.6953 21.1836 34.0982C21.4557 33.5012 21.7304 32.9095 22.0133 32.3205C22.2961 31.7315 22.5978 31.2255 22.6463 30.5964C22.6894 30.0235 22.6894 29.4184 22.6436 28.8481C22.5978 28.2779 22.3823 27.7505 22.1991 27.2123C21.8274 26.1147 21.5473 24.9875 21.3776 23.8417C21.2941 23.2661 21.2375 22.6851 21.2133 22.1041C21.2106 22.0238 21.2079 21.9435 21.2052 21.8659C21.1917 21.5553 21.1998 22.2996 21.2052 22.2541C21.224 22.1148 21.2159 21.9622 21.224 21.823C21.2402 21.5258 21.2644 21.2287 21.2994 20.9342C21.4234 19.8445 21.6577 18.7656 21.9971 17.7215C22.3365 16.6773 22.7864 15.6412 23.317 14.6613C23.8477 13.6815 24.4537 12.6668 25.1972 11.8181C25.9406 10.9694 26.913 10.276 27.9474 9.76465C28.4565 9.51298 28.9845 9.30148 29.5205 9.11675C29.8007 9.02037 30.0835 8.93202 30.369 8.84902C30.5037 8.81154 30.6384 8.77406 30.7731 8.73658C30.7731 8.73658 30.9616 8.675 30.9778 8.68303C31.0155 8.70445 31.0155 9.03108 31.0209 9.07123C30.9724 8.63216 31.0694 8.17435 31.0209 7.73261C31.0155 7.68174 31.0182 7.53181 30.9913 7.47559C30.9293 7.33637 31.064 7.37385 30.8754 7.37385C30.765 7.37385 30.6276 7.44079 30.5199 7.47024C30.2505 7.5452 29.9838 7.62552 29.7172 7.71387C29.208 7.87986 28.707 8.07262 28.2222 8.29751C27.2686 8.73658 26.3689 9.30416 25.6174 10.0377C24.7931 10.8382 24.1655 11.8395 23.5945 12.8274C23.0234 13.8153 22.5197 14.8809 22.1345 15.9732C21.7493 17.0655 21.4961 18.1177 21.3452 19.2261C21.1863 20.3907 21.1809 21.566 21.1944 22.7386C21.2079 23.8417 21.3102 24.9393 21.5203 26.0236C21.6389 26.6287 21.787 27.2311 21.9648 27.8228C22.1426 28.4144 22.3823 28.9847 22.5358 29.5817C22.5682 29.7075 22.5978 29.836 22.6167 29.9672C22.6328 30.0663 22.6328 30.168 22.649 30.2698C22.6571 30.3233 22.7244 29.0516 22.622 29.5014C22.5493 29.8227 22.4496 30.1118 22.3015 30.409C22.0025 31.014 21.7143 31.6245 21.4314 32.2375C21.1486 32.8506 20.8712 33.4664 20.5883 34.0822C20.3216 34.6658 19.9822 35.2495 19.7775 35.8572C19.6051 36.3766 19.6806 37.0165 19.6994 37.5519C19.7129 37.9428 19.9014 38.2105 20.2489 38.3952C20.7715 38.671 21.4018 38.7406 21.9783 38.8236C22.3123 38.8718 22.6894 38.928 22.9507 39.1583C23.0557 39.2493 23.1311 39.3617 23.1823 39.4902C23.2093 39.5572 23.2254 39.6268 23.2416 39.6964C23.2524 39.7499 23.2551 39.8035 23.2631 39.857C23.282 40.0766 23.282 39.9373 23.2685 39.4394C23.2793 38.9066 23.2766 38.7995 23.2551 39.1235C23.2039 39.7151 23.2039 40.3202 23.2281 40.9145C23.2766 42.055 23.9392 43.043 24.5076 43.9961C24.7797 44.4539 25.0706 44.8929 25.3615 45.34C25.6524 45.7872 25.7817 46.2584 25.9191 46.7804C26.0942 47.4524 26.3797 48.1351 27.0046 48.5099C27.7238 48.941 28.707 48.9758 29.5205 48.941C30.73 48.8874 31.8909 48.518 32.998 48.0494C33.9516 47.6478 34.8621 47.1204 35.8372 46.7751C36.0338 46.7054 36.2735 46.6278 36.4756 46.7242C36.6776 46.8206 36.7961 47.0722 36.885 47.2703C36.9604 47.439 37.0278 47.613 37.0924 47.7844C37.1167 47.8513 37.1651 48.0949 37.2217 48.1324C37.2837 48.1753 37.5961 48.1137 37.6608 48.111C37.6715 48.111 37.6823 46.8848 37.6608 46.7724C37.6015 46.4806 37.5934 46.2075 37.4345 45.9478C37.2917 45.7175 37.1705 45.4953 37.1463 45.2222L37.1517 45.5542V45.4846L37.1463 46.4913C37.1948 45.921 37.7847 45.6212 38.2264 45.3641C38.9941 44.9144 39.743 44.4405 40.481 43.9452C41.1383 43.5034 41.8009 43.0617 42.4313 42.5878C42.97 42.1836 43.304 41.6936 43.3902 41.019C43.4171 40.8021 43.3956 40.5692 43.3956 40.3496C43.3956 40.1917 43.3956 40.0337 43.3956 39.8758C43.3956 39.8463 43.374 39.6964 43.3902 39.6803C42.0595 40.9949 40.5134 42.0363 38.9295 43.0215C37.3456 44.0068 35.6055 45 33.8358 45.7925C32.198 46.5234 30.5279 47.19 28.6989 47.0749C28.2087 47.0428 27.6888 46.9651 27.2686 46.6921C26.8861 46.4431 26.6518 46.0495 26.5009 45.6292C26.3878 45.3106 26.3177 44.9759 26.2639 44.644C26.21 44.312 26.2666 43.8568 26.0969 43.5436C25.9272 43.2304 25.4746 43.1019 25.1972 42.893C24.9413 42.7003 24.7446 42.4673 24.7069 42.1407V42.2317C24.7473 43.8595 24.6396 43.2411 24.9467 42.7029C25.0302 42.5584 25.0733 42.4674 25.0787 42.304C25.0867 41.9774 25.0841 41.6481 25.0787 41.3215C25.0787 41.1662 25.1002 41.0243 24.9952 40.8985C24.7851 40.6522 24.3675 40.5799 24.1116 40.3818C23.8396 40.1703 23.678 39.8972 23.6483 39.5545V39.6455C23.6052 40.6656 23.6106 40.9895 23.6645 40.6147C23.6672 40.5852 23.6726 40.5585 23.6807 40.5317C23.6995 40.4594 23.7157 40.3844 23.7372 40.3122C23.7857 40.1569 23.8557 40.0096 23.8908 39.849C23.9689 39.4956 23.9285 39.1074 23.9285 38.7513C23.9285 38.1944 23.9339 37.7232 23.4086 37.3966C22.7998 37.0165 22.0079 37.0031 21.3183 36.8853C20.8846 36.8103 20.3594 36.6684 20.3163 36.1571L20.3216 37.0031V36.9388L20.3163 37.4314C20.3621 36.8531 20.758 36.2909 21.0031 35.7796C21.3129 35.1317 21.6146 34.4784 21.9163 33.8278C22.218 33.1773 22.4981 32.5615 22.7917 31.9297C23.0396 31.3969 23.282 30.8748 23.3008 30.2778C23.3197 29.6808 23.414 28.9097 23.1796 28.3234C23.0611 28.0262 22.8645 27.7612 22.7217 27.4747C22.5789 27.1882 22.4416 26.8723 22.3311 26.5591C22.1291 25.9862 21.9917 25.3918 21.9082 24.7894C21.8624 24.4601 21.8301 24.1308 21.8139 23.7988C21.8059 23.6328 21.8086 23.4642 21.7951 23.3009C21.7951 23.325 21.787 24.1014 21.8005 23.6141C21.8005 23.5204 21.8059 23.424 21.8112 23.3303C21.9648 19.4188 22.6786 15.3146 25.4746 12.3562C26.1804 11.6093 26.9966 10.9694 27.8882 10.4527C28.3515 10.185 28.8363 9.94938 29.3347 9.7459C29.8895 9.52101 30.5172 9.40589 31.0236 9.09265C31.0828 9.05517 31.029 8.50098 31.029 8.42334C31.029 8.3457 30.9643 7.78883 31.0236 7.75403L31.0209 7.72993Z" fill="#0C1C2D"/>
<path d="M43.9143 7.19861C48.472 7.67784 51.7906 9.87051 53.6546 14.1113C55.1846 17.5944 56.087 21.1739 55.5967 25.0131C55.4136 26.4534 54.9395 27.7733 54.1583 28.9968C53.1509 30.5737 52.2081 32.1962 51.1657 33.7517C50.468 34.7958 50.1852 35.8105 50.8047 36.9751C50.9394 37.2267 51.1091 37.5212 50.8128 37.9121C50.0666 36.6136 49.4444 35.433 50.468 33.9819C51.3138 32.7825 51.8929 31.3903 52.7819 30.2284C55.5913 26.5445 55.6371 22.4858 54.5651 18.2691C54.2607 17.067 53.8001 15.8997 53.3475 14.7404C51.8633 10.9548 49.0996 8.66307 45.0834 7.88131C44.6874 7.80367 44.2806 7.77154 43.9547 7.49846C43.9412 7.3994 43.9278 7.29767 43.917 7.19861H43.9143Z" fill="#0C1C2D"/>
<path d="M43.9142 7.86731C45.9749 8.08952 48.0059 8.68655 49.7245 9.86454C51.443 11.0425 52.7198 12.7239 53.5737 14.6006C54.7212 17.1199 55.5509 19.8427 55.7017 22.6163C55.7071 22.7341 55.7259 23.4329 55.7206 22.9617C55.7152 22.4905 55.7044 23.1116 55.7017 23.2C55.6802 23.6015 55.6424 24.0031 55.5886 24.4021C55.4997 25.0687 55.3461 25.7273 55.1199 26.3618C54.6619 27.6603 53.8619 28.7874 53.1427 29.952C52.7063 30.6588 52.2754 31.3656 51.8282 32.067C51.4107 32.7203 50.9016 33.3548 50.6349 34.0884C50.3844 34.7764 50.4464 35.5368 50.4571 36.2569C50.4625 36.5809 50.5002 36.8941 50.608 37.1993C50.7157 37.5046 50.9258 37.7776 50.9743 38.1016L50.9689 37.609V37.6973L50.977 36.8513C50.9635 36.937 50.9474 37.0093 50.9097 37.0869L50.8854 37.1378C50.8504 37.2582 50.8181 37.277 50.7885 37.194C50.6969 37.1378 50.5999 36.862 50.546 36.7603C50.3952 36.4845 50.2551 36.2007 50.1447 35.9062C50.0935 35.767 50.0477 35.6251 50.0127 35.4779C49.9938 35.3975 49.983 35.3172 49.9642 35.2396C49.8968 34.9183 50.1958 34.9826 49.9534 35.8955C50.0396 35.5689 50.1016 35.2771 50.2686 34.9745C50.6188 34.3454 51.0524 33.7591 51.408 33.1272C51.7636 32.4954 52.103 31.8743 52.507 31.2826C52.9111 30.6909 53.3447 30.1421 53.6976 29.5236C54.0289 28.9454 54.3091 28.3376 54.5326 27.7111C54.9556 26.5305 55.1684 25.2855 55.2088 24.0326C55.2976 21.2402 54.9717 18.5228 54.0343 15.8777C53.237 13.6234 52.3023 11.4388 50.4922 9.79761C49.6221 9.0105 48.612 8.3867 47.5291 7.93692C46.9392 7.69329 46.3277 7.49785 45.7055 7.34792C45.3742 7.2676 45.0402 7.21138 44.7062 7.14445C44.5284 7.10964 44.3533 7.06413 44.189 6.98114C43.9519 6.86334 43.9492 6.78302 43.9169 6.52868C43.9735 6.96507 43.8603 7.42824 43.9169 7.86731C43.9412 8.06007 43.9196 8.15645 44.0947 8.26622C44.2348 8.35189 44.3883 8.40544 44.5472 8.44827C44.8516 8.52591 45.1641 8.56339 45.4712 8.633C46.0261 8.75616 46.5729 8.91412 47.1062 9.11223C48.1056 9.48169 49.0537 9.9877 49.8968 10.6383C50.74 11.2888 51.4538 12.0599 52.0491 12.9246C52.7333 13.9206 53.1993 15.0102 53.633 16.1293C54.169 17.5135 54.6135 18.9137 54.8909 20.3728C55.0148 21.0234 55.1091 21.6793 55.163 22.3379C55.1764 22.5092 55.1899 22.6806 55.198 22.8546C55.2034 22.9429 55.2034 23.034 55.2088 23.125C55.2222 23.4168 55.2222 22.5066 55.2088 22.7984C55.1899 23.1625 55.1684 23.5239 55.1226 23.8853C54.9636 25.1704 54.5973 26.4261 54.0209 27.588C53.3932 28.857 52.4639 29.9359 51.7636 31.1648C51.408 31.7886 51.0713 32.4204 50.6753 33.0201C50.309 33.5797 49.9723 34.0937 49.9373 34.7791C49.9049 35.4216 49.8618 36.1365 50.0019 36.771C50.0639 37.0494 50.1662 37.3171 50.2847 37.5768C50.3494 37.7214 50.4221 37.8633 50.4975 38.0052C50.5676 38.1364 50.6538 38.3907 50.7642 38.4844C50.8558 38.5647 50.7534 38.6531 50.8881 38.4764C50.9258 38.4282 50.9528 38.3372 50.9662 38.281C50.9932 38.1658 50.9851 38.0427 50.9851 37.9249C50.9878 37.5447 51.0201 37.1431 50.9797 36.7629C50.9528 36.514 50.7992 36.3051 50.6996 36.0802C50.6214 35.9062 50.5622 35.7215 50.5218 35.5341C50.5083 35.4645 50.5056 35.3868 50.4868 35.3199L50.4733 36.2168C50.4787 36.1204 50.4895 36.0267 50.5056 35.933C50.6214 35.2449 51.0066 34.672 51.3838 34.0991C51.7932 33.478 52.1892 32.8461 52.5797 32.2116C52.9703 31.5771 53.3825 30.9051 53.7892 30.2572C54.1717 29.6468 54.5569 29.0471 54.8505 28.3885C55.4189 27.1141 55.6478 25.7487 55.7179 24.3646C55.7879 22.9804 55.7771 21.4731 55.5966 20.0488C55.4162 18.6245 55.0714 17.2297 54.6108 15.8723C53.8431 13.6073 52.8518 11.3665 51.1171 9.66375C49.6086 8.18322 47.6746 7.24618 45.6166 6.7964C45.0563 6.67325 44.4907 6.58758 43.9196 6.526C43.9573 6.53136 43.8603 7.85928 43.9196 7.86463L43.9142 7.86731Z" fill="#0C1C2D"/>
<path d="M44.4568 28.175C44.7208 27.2487 45.4373 26.74 46.1996 26.3063C47.2286 25.7199 48.2737 25.471 49.3135 26.325C50.5391 27.3317 51.0347 28.5284 50.4852 29.851C49.7579 31.6046 48.7128 33.2216 48.1256 35.0475C47.972 35.5267 47.5572 35.856 46.9646 35.6017C47.2178 35.3045 47.5814 35.0475 47.6946 34.7102C48.2522 33.0128 49.0926 31.4546 49.9061 29.875C50.5364 28.6515 50.0408 27.6342 49.0926 26.7908C48.1983 25.993 47.2447 26.2581 46.3639 26.7775C45.6878 27.1764 45.0871 27.7038 44.4541 28.175H44.4568Z" fill="#0C1C2D"/>
<path d="M44.457 28.845C44.7721 27.8169 45.7068 27.1744 46.6496 26.7433C47.1345 26.5238 47.6705 26.3792 48.2065 26.4676C48.8126 26.5666 49.3082 26.9441 49.7312 27.3698C50.0894 27.7313 50.3965 28.1543 50.5662 28.6388C50.6012 28.7379 50.6308 28.8396 50.6551 28.9441C50.6686 29.003 50.6739 29.0645 50.6874 29.1207C50.779 29.5304 50.717 28.1784 50.7063 28.2587C50.6686 28.5451 50.6281 28.8102 50.5258 29.0833C50.0894 30.2452 49.4456 31.3268 48.915 32.4459C48.6133 33.0777 48.3709 33.723 48.1284 34.3789C47.9345 34.9063 47.5089 35.1392 46.9675 34.9331V36.2717C47.121 36.0977 47.2988 35.9424 47.4523 35.7684C47.6328 35.5622 47.7082 35.34 47.7971 35.0857C47.9964 34.5208 48.2254 33.9666 48.4732 33.4231C48.721 32.8796 49.0039 32.3067 49.2867 31.7552C49.548 31.2411 49.8766 30.7298 50.0679 30.1836C50.243 29.6776 50.2025 29.1315 50.1999 28.604C50.1999 28.1355 50.1945 27.6965 49.9951 27.2627C49.5884 26.3792 48.6672 25.5091 47.6301 25.6296C46.4018 25.7742 45.397 26.8022 44.457 27.5064C44.3923 27.5546 44.4516 28.0873 44.4516 28.1757C44.4516 28.264 44.5243 28.7968 44.457 28.845C45.2516 28.248 46.0112 27.5385 46.9432 27.1556C47.3446 26.9897 47.789 26.8986 48.22 26.9923C48.6968 27.0967 49.0766 27.41 49.4025 27.7554C49.6907 28.0632 49.9413 28.4166 50.0813 28.8155C50.1163 28.9173 50.1433 29.0217 50.1621 29.1261C50.1702 29.1716 50.1729 29.2198 50.181 29.2626C50.1891 29.3001 50.2214 28.2292 50.1675 28.4461C50.1137 28.6629 50.0625 28.8852 49.9628 29.0993C49.5049 30.0872 48.9527 31.0323 48.5002 32.0256C48.2523 32.5691 48.0207 33.1233 47.8213 33.6855C47.7378 33.9237 47.6759 34.154 47.517 34.3548C47.358 34.5556 47.1452 34.735 46.9701 34.9304C46.9055 35.0054 46.9405 36.2583 46.9701 36.269C47.4846 36.4671 47.921 36.2637 48.115 35.755C48.3547 35.1258 48.5783 34.502 48.8638 33.8916C49.1493 33.2812 49.4806 32.6467 49.7877 32.0256C50.0759 31.4473 50.4019 30.8503 50.5904 30.2291C50.779 29.608 50.7197 28.9628 50.7143 28.339C50.709 27.8169 50.6308 27.3377 50.3749 26.8719C49.7985 25.825 48.6591 24.896 47.4011 25.1477C46.76 25.2762 46.1513 25.6216 45.6233 25.991C45.0954 26.3605 44.6563 26.8585 44.457 27.501C44.4004 27.6884 44.4489 27.9749 44.4516 28.1703C44.4543 28.3658 44.5162 28.6522 44.457 28.8396V28.845Z" fill="#0C1C2D"/>
<path d="M31.0209 8.4005L30.9778 8.01229C34.2425 6.87178 37.6231 6.7165 41.0386 6.83698C41.0198 6.97887 40.9982 7.11809 40.9794 7.25731C37.6069 7.17699 34.2802 7.49558 31.0209 8.39782V8.4005Z" fill="#0C1C2D"/>
<path d="M31.021 7.73084L30.9779 7.34264V8.68126C34.213 7.56485 37.642 7.38815 41.0387 7.50595V6.16732C41.0253 6.25567 41.0145 6.34402 41.001 6.42969C40.9768 6.60371 40.9929 6.55552 40.8502 6.58497C40.6535 6.62513 40.4057 6.57694 40.2037 6.57694C39.7512 6.57694 39.2986 6.57962 38.8461 6.593C37.968 6.61978 37.0898 6.67332 36.2144 6.76435C34.4608 6.94372 32.7234 7.26232 31.021 7.72816C30.986 7.73619 31.0156 8.34125 31.0156 8.39747C31.0156 8.45102 31.0479 9.05876 31.021 9.06679C32.7207 8.60095 34.4581 8.28235 36.2144 8.10298C37.0683 8.01463 37.9249 7.96108 38.7814 7.93431C39.234 7.92092 39.6865 7.91557 40.1364 7.91557C40.3519 7.91557 40.5673 7.91825 40.7828 7.9236C40.8475 7.9236 40.9121 7.9236 40.9768 7.92895L40.9903 7.82454C41.0307 7.74422 41.0226 7.59697 41.0334 7.50862C41.0522 7.38279 41.0441 6.17 41.0334 6.17C37.6366 6.0522 34.2076 6.22622 30.9725 7.34531C30.8971 7.37208 30.959 8.55543 30.9725 8.68394L31.0156 9.07214C30.9671 8.63307 31.0641 8.17526 31.0156 7.73351L31.021 7.73084Z" fill="#0C1C2D"/>
<path d="M30.6493 25.4137C28.3489 24.897 26.2101 24.6909 23.8909 25.5985C25.5475 24.0992 28.4135 24.0537 30.6493 25.4137Z" fill="#0C1C2D"/>
<path d="M30.6499 24.7441C28.3764 24.2408 26.103 24.0829 23.8915 24.9289V26.2675C25.7582 24.6183 28.6269 24.8726 30.6499 26.0828C30.6068 26.056 30.6553 25.4831 30.6553 25.4135C30.6553 25.3331 30.7172 24.7843 30.6499 24.7441C28.6242 23.5367 25.7582 23.2824 23.8915 24.9289C23.8214 24.9904 23.8861 25.4991 23.8861 25.5982C23.8861 25.6571 23.9292 26.2541 23.8915 26.2675C26.1057 25.4188 28.3764 25.5768 30.6499 26.0828C30.5637 26.064 30.7549 24.7682 30.6499 24.7441Z" fill="#0C1C2D"/>
<path d="M37.2222 47.4473C37.3676 47.4393 37.5158 47.4339 37.6612 47.4259C37.9064 48.2799 38.2323 49.1046 38.5906 49.9265C37.742 49.3053 37.3703 48.4379 37.2222 47.4473Z" fill="#0C1C2D"/>
<path d="M37.2224 48.1168C37.3464 48.1115 37.4918 48.082 37.613 48.0981C37.6696 48.1061 37.648 48.0901 37.675 48.1409C37.6884 48.1677 37.6938 48.2025 37.7019 48.232C37.7208 48.2935 37.7396 48.3524 37.7585 48.414C37.8366 48.663 37.9201 48.912 38.0117 49.1556C38.1895 49.6402 38.3861 50.1194 38.5935 50.5933V49.2547C37.78 48.6523 37.3733 47.7527 37.2251 46.7755C37.2332 46.8317 37.2197 46.9201 37.2197 46.971C37.2197 47.1289 37.2197 47.2869 37.2197 47.4448C37.2197 47.6617 37.1928 47.8973 37.2251 48.1142C37.3733 49.0914 37.78 49.9909 38.5935 50.5933C38.5881 50.5879 38.5989 50.3738 38.5989 50.3979C38.5989 50.2399 38.5989 50.0819 38.5989 49.924C38.5989 49.766 38.5989 49.6081 38.5989 49.4501C38.5989 49.3966 38.6151 49.3029 38.5935 49.2547C38.3861 48.7808 38.1895 48.3016 38.0117 47.817C37.9255 47.5787 37.842 47.3378 37.7666 47.0968C37.7477 47.0352 37.7289 46.9763 37.71 46.9147C37.7019 46.8853 37.6911 46.8532 37.6831 46.8237C37.6696 46.7809 37.675 46.7702 37.64 46.7568C37.5942 46.738 37.4945 46.7648 37.446 46.7648L37.2278 46.7755C37.1955 46.7755 37.2386 48.1142 37.2278 48.1142L37.2224 48.1168Z" fill="#0C1C2D"/>
<path d="M40.981 7.25773C40.9998 7.11851 41.0214 6.97662 41.0402 6.8374C42.0099 6.87221 42.977 6.92843 43.9171 7.19883C43.9305 7.29789 43.944 7.39963 43.9548 7.49869C42.9446 7.64861 41.9776 7.28183 40.981 7.26041V7.25773Z" fill="#0C1C2D"/>
<path d="M40.981 7.92776L41.0107 7.71626C41.0161 7.67878 41.0134 7.52886 41.0403 7.50476C41.0672 7.48066 41.2316 7.51279 41.2693 7.51279C41.3447 7.51547 41.4201 7.51815 41.4982 7.5235C41.8107 7.53956 42.1232 7.5583 42.4356 7.59043C42.7481 7.62256 43.039 7.6654 43.3353 7.72429C43.4835 7.75374 43.6343 7.78855 43.7798 7.82603C43.8094 7.83406 43.866 7.83942 43.8902 7.85548C43.9252 7.88225 43.9198 7.88761 43.9279 7.93847L43.9575 8.16336V6.82474C42.9555 6.96663 41.9804 6.61591 40.9837 6.58646C40.9864 6.58646 40.9595 7.92509 40.9837 7.92509C41.9804 7.95454 42.9555 8.30526 43.9575 8.16336C43.9926 8.15801 43.9737 6.94254 43.9575 6.82474L43.9306 6.62394C43.9279 6.60252 43.9306 6.54095 43.9171 6.52488C43.9037 6.50882 43.8282 6.50079 43.8067 6.49543C43.6585 6.45527 43.5104 6.42047 43.3622 6.39102C43.0552 6.32944 42.7454 6.28393 42.4356 6.2518C42.1258 6.21968 41.8295 6.20094 41.5279 6.18487C41.4524 6.18219 41.377 6.17684 41.2989 6.17416C41.2423 6.17416 41.1211 6.14471 41.0699 6.16613C41.0295 6.18219 41.0376 6.19023 41.0295 6.24377L41.0161 6.34818L40.9837 6.58646C40.9541 6.80332 40.9757 7.03892 40.9783 7.25577C40.9783 7.41373 40.9783 7.57169 40.9783 7.72965C40.9783 7.79123 40.9918 7.86619 40.9837 7.92509L40.981 7.92776Z" fill="#0C1C2D"/>
<path d="M52.4722 41.166C53.1052 41.6693 53.2803 42.0549 53.3153 42.6599C52.6984 42.3601 52.588 41.9478 52.4722 41.166Z" fill="#0C1C2D"/>
<path d="M52.4726 41.8352C52.7178 42.0307 52.9548 42.2529 53.1084 42.5286C53.2376 42.7642 53.2915 43.0239 53.3131 43.289V43.2649C53.3131 43.2783 53.3131 43.2916 53.3131 43.305V41.9905C53.0572 41.8647 52.8363 41.6853 52.7043 41.4256C52.5615 41.1391 52.5157 40.8098 52.47 40.4966C52.478 40.5528 52.4646 40.6412 52.4646 40.692C52.4646 40.85 52.4646 41.0079 52.4646 41.1659C52.4646 41.3239 52.4646 41.4818 52.4646 41.6398C52.4646 41.704 52.4592 41.7736 52.47 41.8352C52.5157 42.1484 52.5615 42.4778 52.7043 42.7642C52.8336 43.0239 53.0545 43.2033 53.3131 43.3291C53.3104 43.3291 53.3185 43.1042 53.3185 43.1337C53.3185 43.0052 53.3185 42.8767 53.3185 42.7482C53.3185 42.5045 53.3292 42.2582 53.3131 42.0146C53.2942 41.7362 53.2511 41.4631 53.1164 41.2141C52.9629 40.9276 52.7178 40.7001 52.4673 40.4966C52.4726 40.5019 52.4619 40.7161 52.4619 40.692C52.4619 40.85 52.4619 41.0079 52.4619 41.1659C52.4619 41.3239 52.4619 41.4818 52.4619 41.6398C52.4619 41.6719 52.4457 41.8191 52.4673 41.8352H52.4726Z" fill="#0C1C2D"/>
<path d="M54.4508 44.5464C53.8636 44.2091 53.6993 43.9547 53.7505 43.4862C54.2327 43.612 54.2596 43.9681 54.4508 44.5464Z" fill="#0C1C2D"/>
<path d="M54.451 43.8766C54.2624 43.7668 54.0658 43.6463 53.923 43.4777C53.8153 43.3518 53.756 43.2019 53.7425 43.0359V43.06C53.7129 42.5862 53.7237 44.661 53.7425 44.238C53.7425 44.2193 53.7425 44.2005 53.7452 44.1818V44.2059C53.7452 44.2059 53.7452 44.1577 53.7479 44.155C53.7506 44.155 53.7829 44.1657 53.7883 44.1657C53.8179 44.1738 53.8449 44.1845 53.8718 44.1952C53.9203 44.2166 53.9688 44.2407 54.0119 44.2728C54.09 44.3317 54.152 44.4094 54.1978 44.495C54.319 44.7173 54.3701 44.9769 54.451 45.2152C54.451 45.1965 54.4537 45.1777 54.451 45.1563C54.451 45.1108 54.451 45.0653 54.451 45.0171C54.451 44.8591 54.451 44.7012 54.451 44.5432C54.451 44.3853 54.451 44.2273 54.451 44.0694V43.9649C54.451 43.9355 54.451 43.9034 54.4456 43.8739C54.3782 43.6731 54.3297 43.467 54.2489 43.2742C54.187 43.1243 54.1008 42.9877 53.9607 42.9021C53.9284 42.8807 53.8907 42.8646 53.8557 42.8512C53.8314 42.8405 53.8072 42.8325 53.7829 42.8244C53.7748 42.8244 53.7641 42.8164 53.756 42.8164C53.7425 42.8084 53.7371 42.811 53.7398 42.8271C53.7398 42.8351 53.7398 42.8432 53.7398 42.8539C53.7344 42.9181 53.7317 42.9824 53.7317 43.044C53.7237 43.4616 53.721 43.8846 53.7317 44.3023C53.7371 44.4709 53.7748 44.6262 53.8745 44.7628C54.0173 44.9582 54.2355 45.0921 54.4429 45.2125C54.4375 45.2125 54.4483 44.9903 54.4483 45.0171C54.4483 44.8591 54.4483 44.7012 54.4483 44.5432C54.4483 44.3853 54.4483 44.2273 54.4483 44.0694V43.9649C54.4483 43.9355 54.4483 43.9034 54.4429 43.8739L54.451 43.8766Z" fill="#0C1C2D"/>
<path d="M51.1425 38.6783C50.954 38.5042 50.7573 38.2472 51.0321 38.0919C51.2233 37.9822 51.2745 38.3275 51.3526 38.4962C51.2826 38.5578 51.2126 38.6167 51.1425 38.6783Z" fill="#0C1C2D"/>
<path d="M51.1432 38.0083C51.0382 37.9119 50.9116 37.7861 50.8981 37.6362V37.6603C50.8981 37.6014 50.8981 37.6522 50.9008 37.8129V38.9186L50.8954 38.9427C50.9008 38.8811 50.9358 38.8275 50.9843 38.7901C51.0247 38.7606 51.0759 38.7258 51.1297 38.7446C51.1702 38.7579 51.1998 38.7954 51.2186 38.8329C51.2456 38.8811 51.2671 38.9346 51.286 38.9882C51.3075 39.0471 51.3264 39.1087 51.3506 39.1649V37.8263C51.2806 37.8878 51.2106 37.9467 51.1405 38.0083C51.1405 38.027 51.1378 38.0458 51.1405 38.0672C51.1405 38.1127 51.1405 38.1582 51.1405 38.2064C51.1405 38.3644 51.1405 38.5223 51.1405 38.6803C51.1405 38.8383 51.1405 38.9962 51.1405 39.1542V39.2586C51.1405 39.288 51.1405 39.3202 51.1459 39.3496C51.2159 39.288 51.286 39.2291 51.356 39.1676C51.356 39.1488 51.3587 39.1301 51.356 39.1087C51.356 39.0631 51.356 39.0176 51.356 38.9694C51.356 38.8115 51.356 38.6535 51.356 38.4956C51.356 38.3376 51.356 38.1797 51.356 38.0217V37.9173C51.356 37.8878 51.356 37.8557 51.3506 37.8263C51.3129 37.7459 51.2914 37.6576 51.259 37.5746C51.2348 37.513 51.1971 37.422 51.1271 37.4032C51.092 37.3925 51.0543 37.4086 51.0247 37.4247C50.9789 37.4514 50.9385 37.4862 50.9169 37.5344C50.9089 37.5532 50.9035 37.5746 50.9008 37.596C50.8954 37.6335 50.8981 37.671 50.8954 37.7058C50.89 38.011 50.89 38.3162 50.8954 38.6214C50.8954 38.7258 50.8954 38.8329 50.9008 38.9373C50.9008 38.9534 50.9008 38.9694 50.9035 38.9828C50.9062 39.0069 50.9143 39.031 50.925 39.0551C50.9708 39.1676 51.0597 39.2613 51.1486 39.3416C51.1486 39.3228 51.1513 39.3041 51.1486 39.2827C51.1486 39.2372 51.1486 39.1917 51.1486 39.1435C51.1486 38.9855 51.1486 38.8275 51.1486 38.6696C51.1486 38.5116 51.1486 38.3537 51.1486 38.1957V38.0913C51.1486 38.0619 51.1486 38.0297 51.1432 38.0003V38.0083Z" fill="#0C1C2D"/>
<path d="M51.3532 38.4946C51.4959 38.682 51.566 38.8721 51.3828 39.0756C51.302 38.9417 51.2239 38.8105 51.1431 38.6767L51.3532 38.4946Z" fill="#0C1C2D"/>
<path d="M51.3539 39.1633C51.4212 39.2517 51.4832 39.3534 51.4913 39.4685V39.4444C51.4913 39.4444 51.4913 39.4552 51.4913 39.4605V38.245C51.4913 38.1915 51.4913 38.1781 51.4913 38.2022V38.1781C51.4886 38.229 51.4724 38.2772 51.4455 38.32C51.4293 38.3468 51.4131 38.3709 51.3943 38.3923L51.3862 38.4003C51.3862 38.4003 51.3808 38.4057 51.3808 38.4003C51.3754 38.4003 51.3727 38.3842 51.37 38.3816L51.3431 38.3387C51.2785 38.229 51.2111 38.1192 51.1465 38.0068V39.3454L51.3566 39.1633C51.3566 39.1446 51.3593 39.1258 51.3566 39.1044C51.3566 39.0589 51.3566 39.0134 51.3566 38.9652C51.3566 38.8073 51.3566 38.6493 51.3566 38.4913C51.3566 38.3334 51.3566 38.1754 51.3566 38.0175V37.9131C51.3566 37.8836 51.3566 37.8515 51.3512 37.822L51.1411 38.0041C51.1411 38.0228 51.1384 38.0416 51.1411 38.063C51.1411 38.1085 51.1411 38.154 51.1411 38.2022C51.1411 38.3602 51.1411 38.5181 51.1411 38.6761C51.1411 38.834 51.1411 38.992 51.1411 39.1499V39.2544C51.1411 39.2838 51.1411 39.3159 51.1465 39.3454C51.2057 39.4471 51.2677 39.5462 51.3269 39.6479L51.3727 39.7256L51.3835 39.7443C51.3835 39.7443 51.3943 39.7336 51.3997 39.7282C51.4078 39.7175 51.4185 39.7068 51.4266 39.6934C51.4536 39.6559 51.4751 39.6131 51.4859 39.5676C51.494 39.5408 51.494 39.5141 51.4967 39.4846C51.4967 39.4391 51.4967 39.3936 51.4993 39.3481C51.4993 39.174 51.4993 38.9973 51.4993 38.8233C51.4993 38.6011 51.5047 38.3762 51.494 38.154C51.494 38.1272 51.4886 38.1005 51.4832 38.0737C51.4616 37.9827 51.4105 37.8997 51.3539 37.8274C51.3539 37.8461 51.3512 37.8649 51.3539 37.8863C51.3539 37.9318 51.3539 37.9773 51.3539 38.0255C51.3539 38.1835 51.3539 38.3414 51.3539 38.4994C51.3539 38.6573 51.3539 38.8153 51.3539 38.9732V39.0777C51.3539 39.1071 51.3539 39.1392 51.3593 39.1687L51.3539 39.1633Z" fill="#0C1C2D"/>
<path d="M53.5048 42.958L53.5398 43.0597L53.4536 43.0544L53.5048 42.958Z" fill="#0C1C2D"/>
<path d="M53.505 43.6263L53.5347 43.7147L53.54 43.7281V42.3894L53.4538 42.3814V43.72L53.4996 43.637L53.505 43.6263C53.505 43.6076 53.5077 43.5889 53.505 43.5674C53.505 43.5219 53.505 43.4764 53.505 43.4282C53.505 43.2703 53.505 43.1123 53.505 42.9543C53.505 42.7964 53.505 42.6384 53.505 42.4805V42.3761C53.505 42.3466 53.505 42.3145 53.4996 42.285L53.4538 42.368L53.4485 42.3787C53.4485 42.3975 53.4458 42.4162 53.4485 42.4376C53.4485 42.4831 53.4485 42.5287 53.4485 42.5769C53.4485 42.7348 53.4485 42.8928 53.4485 43.0507C53.4485 43.2087 53.4485 43.3666 53.4485 43.5246V43.629C53.4485 43.6585 53.4485 43.6906 53.4538 43.72L53.54 43.7281C53.54 43.7093 53.5427 43.6906 53.54 43.6692C53.54 43.6237 53.54 43.5781 53.54 43.53C53.54 43.372 53.54 43.214 53.54 43.0561C53.54 42.8981 53.54 42.7402 53.54 42.5822V42.4778C53.54 42.4483 53.54 42.4162 53.5347 42.3868L53.505 42.2984L53.4996 42.285C53.4996 42.3038 53.4969 42.3225 53.4996 42.3439C53.4996 42.3894 53.4996 42.435 53.4996 42.4831C53.4996 42.6411 53.4996 42.7991 53.4996 42.957C53.4996 43.115 53.4996 43.2729 53.4996 43.4309V43.5353C53.4996 43.5648 53.4996 43.5969 53.505 43.6263Z" fill="#0C1C2D"/>
<path d="M12.4552 70.1366H15.4737V71.5933H10.6179V62.4331H12.4552V70.1366ZM23.4001 67.8006C23.4001 68.0631 23.3826 68.2993 23.3476 68.5093H18.0326C18.0763 69.0342 18.26 69.4454 18.5837 69.7429C18.9075 70.0404 19.3055 70.1891 19.778 70.1891C20.4604 70.1891 20.946 69.896 21.2347 69.3098H23.2164C23.0064 70.0097 22.6039 70.5872 22.009 71.0421C21.4141 71.4883 20.6835 71.7114 19.8174 71.7114C19.1174 71.7114 18.4875 71.5583 17.9276 71.2521C17.3764 70.9371 16.9433 70.4953 16.6283 69.9266C16.3221 69.3579 16.169 68.7018 16.169 67.9581C16.169 67.2057 16.3221 66.5451 16.6283 65.9764C16.9345 65.4077 17.3633 64.9703 17.9144 64.6641C18.4656 64.3578 19.0999 64.2047 19.8174 64.2047C20.5085 64.2047 21.1254 64.3535 21.6678 64.6509C22.219 64.9484 22.6433 65.3727 22.9408 65.9239C23.247 66.4664 23.4001 67.0919 23.4001 67.8006ZM21.4972 67.2757C21.4884 66.8032 21.3178 66.427 20.9854 66.147C20.6529 65.8583 20.2461 65.714 19.7649 65.714C19.3099 65.714 18.925 65.8539 18.61 66.1339C18.3038 66.4051 18.1157 66.7857 18.0457 67.2757H21.4972ZM28.0746 65.8321H26.8016V71.5933H24.938V65.8321H24.1112V64.3229H24.938V63.9554C24.938 63.063 25.1918 62.4068 25.6992 61.9869C26.2066 61.5669 26.9722 61.37 27.9958 61.3963V62.9449C27.5496 62.9361 27.239 63.0105 27.0641 63.168C26.8891 63.3255 26.8016 63.6098 26.8016 64.021V64.3229H28.0746V65.8321ZM31.4044 65.8321V69.3492C31.4044 69.5942 31.4612 69.7735 31.575 69.8873C31.6975 69.9922 31.8987 70.0447 32.1787 70.0447H33.0317V71.5933H31.8768C30.3282 71.5933 29.5539 70.8409 29.5539 69.3361V65.8321H28.6878V64.3229H29.5539V62.5249H31.4044V64.3229H33.0317V65.8321H31.4044ZM40.6431 71.6852C40.0044 71.6852 39.427 71.5758 38.9108 71.3571C38.4033 71.1384 38.0009 70.8234 37.7034 70.4122C37.4059 70.001 37.2528 69.5154 37.2441 68.9555H39.2126C39.2389 69.3317 39.3701 69.6292 39.6063 69.8479C39.8513 70.0666 40.1837 70.176 40.6037 70.176C41.0324 70.176 41.3692 70.0754 41.6142 69.8741C41.8592 69.6642 41.9817 69.3929 41.9817 69.0605C41.9817 68.7892 41.8986 68.5661 41.7323 68.3912C41.5661 68.2162 41.3561 68.0806 41.1024 67.9843C40.8574 67.8793 40.5162 67.7656 40.0788 67.6431C39.4838 67.4681 38.9983 67.2975 38.622 67.1313C38.2546 66.9563 37.9352 66.6982 37.664 66.357C37.4015 66.007 37.2703 65.5433 37.2703 64.9659C37.2703 64.4235 37.4059 63.951 37.6771 63.5486C37.9484 63.1461 38.3289 62.8399 38.8189 62.6299C39.3088 62.4112 39.8688 62.3018 40.4987 62.3018C41.4436 62.3018 42.2092 62.5337 42.7953 62.9974C43.3903 63.4523 43.7184 64.091 43.7796 64.9134H41.7586C41.7411 64.5984 41.6055 64.3403 41.3517 64.1391C41.1068 63.9291 40.7787 63.8242 40.3675 63.8242C40.0088 63.8242 39.72 63.916 39.5013 64.0997C39.2913 64.2835 39.1864 64.5503 39.1864 64.9003C39.1864 65.1453 39.2651 65.3509 39.4226 65.5171C39.5888 65.6746 39.79 65.8058 40.0263 65.9108C40.2712 66.007 40.6125 66.1208 41.0499 66.252C41.6448 66.427 42.1304 66.602 42.5066 66.777C42.8828 66.9519 43.2066 67.2144 43.4778 67.5644C43.749 67.9143 43.8846 68.3737 43.8846 68.9424C43.8846 69.4323 43.7577 69.8873 43.504 70.3072C43.2503 70.7272 42.8785 71.064 42.3885 71.3177C41.8986 71.5627 41.3168 71.6852 40.6431 71.6852ZM46.4093 63.4567C46.0855 63.4567 45.8143 63.3561 45.5956 63.1549C45.3856 62.9449 45.2806 62.6868 45.2806 62.3806C45.2806 62.0743 45.3856 61.8206 45.5956 61.6194C45.8143 61.4094 46.0855 61.3044 46.4093 61.3044C46.733 61.3044 46.9998 61.4094 47.2098 61.6194C47.4285 61.8206 47.5379 62.0743 47.5379 62.3806C47.5379 62.6868 47.4285 62.9449 47.2098 63.1549C46.9998 63.3561 46.733 63.4567 46.4093 63.4567ZM47.3148 64.3229V71.5933H45.4775V64.3229H47.3148ZM48.6576 67.9318C48.6576 67.1969 48.802 66.5451 49.0907 65.9764C49.3881 65.4077 49.7906 64.9703 50.298 64.6641C50.8055 64.3578 51.3698 64.2047 51.991 64.2047C52.4634 64.2047 52.914 64.3097 53.3427 64.5197C53.7714 64.7209 54.1126 64.9922 54.3664 65.3334V61.8819H56.2299V71.5933H54.3664V70.5172C54.1389 70.8759 53.8195 71.1646 53.4083 71.3833C52.9971 71.6021 52.5203 71.7114 51.9779 71.7114C51.3654 71.7114 50.8055 71.554 50.298 71.239C49.7906 70.924 49.3881 70.4822 49.0907 69.9135C48.802 69.3361 48.6576 68.6755 48.6576 67.9318ZM54.3795 67.9581C54.3795 67.5119 54.292 67.1313 54.117 66.8163C53.942 66.4926 53.7058 66.2476 53.4083 66.0814C53.1109 65.9064 52.7915 65.8189 52.4503 65.8189C52.1091 65.8189 51.7941 65.9021 51.5054 66.0683C51.2167 66.2345 50.9805 66.4795 50.7967 66.8032C50.6218 67.1182 50.5343 67.4944 50.5343 67.9318C50.5343 68.3693 50.6218 68.7543 50.7967 69.0867C50.9805 69.4104 51.2167 69.6598 51.5054 69.8348C51.8029 70.0097 52.1178 70.0972 52.4503 70.0972C52.7915 70.0972 53.1109 70.0141 53.4083 69.8479C53.7058 69.6729 53.942 69.4279 54.117 69.113C54.292 68.7892 54.3795 68.4043 54.3795 67.9581ZM64.783 67.8006C64.783 68.0631 64.7655 68.2993 64.7305 68.5093H59.4155C59.4592 69.0342 59.6429 69.4454 59.9666 69.7429C60.2904 70.0404 60.6884 70.1891 61.1609 70.1891C61.8433 70.1891 62.3289 69.896 62.6176 69.3098H64.5993C64.3893 70.0097 63.9868 70.5872 63.3919 71.0421C62.797 71.4883 62.0664 71.7114 61.2003 71.7114C60.5003 71.7114 59.8704 71.5583 59.3105 71.2521C58.7593 70.9371 58.3262 70.4953 58.0112 69.9266C57.705 69.3579 57.5519 68.7018 57.5519 67.9581C57.5519 67.2057 57.705 66.5451 58.0112 65.9764C58.3174 65.4077 58.7462 64.9703 59.2973 64.6641C59.8485 64.3578 60.4828 64.2047 61.2003 64.2047C61.8914 64.2047 62.5083 64.3535 63.0507 64.6509C63.6019 64.9484 64.0262 65.3727 64.3237 65.9239C64.6299 66.4664 64.783 67.0919 64.783 67.8006ZM62.8801 67.2757C62.8713 66.8032 62.7007 66.427 62.3683 66.147C62.0358 65.8583 61.629 65.714 61.1478 65.714C60.6928 65.714 60.3079 65.8539 59.9929 66.1339C59.6867 66.4051 59.4986 66.7857 59.4286 67.2757H62.8801Z" fill="black"/>
</svg>
