<svg width="75" height="82" viewBox="0 0 75 82" fill="none" xmlns="http://www.w3.org/2000/svg">
<path d="M44.3987 8.85857C44.5146 8.92553 44.6224 9.01659 44.749 9.05409C50.5184 10.6932 53.0784 15.4686 53.5095 21.3662C53.7008 24.0016 53.8814 26.7227 52.375 29.168C51.9412 29.8724 52.1271 30.6304 52.4613 31.3481C53.2724 33.0837 54.0511 34.8379 54.9 36.5547C55.3662 37.4975 54.9943 37.859 54.0996 38.0037C53.5688 38.0894 53.0272 38.1429 52.5152 38.2956C51.7256 38.534 51.2648 39.0348 51.6151 39.9052C51.9601 40.7596 51.7418 41.3462 50.9037 41.7426C50.6477 41.8631 50.1681 42.0265 50.4025 42.3827C51.1543 43.5183 50.3944 43.9548 49.5726 44.4182C49.1468 44.6592 49.2492 45.1065 49.1953 45.4975C48.8908 47.6883 48.236 48.2481 46.0182 48.216C44.6871 48.1972 43.4745 47.7205 42.2753 47.2196C40.4133 46.4403 38.6402 45.4868 36.9263 44.4235C35.2556 43.387 33.5768 42.3559 32.0193 40.8052C32.1244 41.7908 32.7226 42.2005 33.2589 42.5782C34.5361 43.4808 35.8323 44.3726 37.185 45.1547C38.0473 45.6528 38.6779 46.0733 37.9422 47.1286C37.7994 47.3321 37.8102 47.6428 37.7482 47.9026C37.8937 47.9106 38.0419 47.916 38.1875 47.924C38.8369 46.1671 38.8261 46.1939 40.5534 46.9947C42.4612 47.8785 44.3529 48.8427 46.5572 48.7275C48.5055 48.6257 49.1926 48.074 49.5887 46.1698C49.7531 45.377 50.3028 44.8413 50.6585 44.2119C51.3241 43.0281 52.3265 41.7184 52.1702 40.3525C52.0274 39.0937 52.3723 38.7536 53.4341 38.6143C53.9191 38.55 54.4122 38.467 54.873 38.309C55.6356 38.0465 55.9267 37.5617 55.5413 36.7529C54.6979 34.9826 53.9299 33.1747 53.0541 31.4178C52.5879 30.483 52.7388 29.6796 53.0757 28.7475C55.2179 22.8151 54.3018 17.2443 50.672 12.177C49.2007 10.1227 46.8832 9.09962 44.4365 8.4729L44.3933 8.86125L44.3987 8.85857Z" fill="#0C1C2D"/>
<path d="M44.3983 9.52824C44.8457 9.8041 45.3819 9.90856 45.875 10.0987C46.3385 10.2782 46.7912 10.4844 47.2305 10.7174C48.0335 11.1486 48.7799 11.6789 49.4482 12.2949C50.7982 13.543 51.7818 15.1312 52.4285 16.84C53.1615 18.7737 53.4364 20.8065 53.5684 22.8607C53.5873 23.1446 53.6034 23.4285 53.6142 23.7124C53.6223 23.8785 53.6223 24.0472 53.6304 24.2133C53.5927 23.2303 53.625 23.9856 53.6115 24.2374C53.5765 24.8695 53.4956 25.5015 53.3501 26.1175C53.2046 26.7335 53.0025 27.304 52.7303 27.8584C52.5875 28.145 52.3962 28.4128 52.2669 28.7048C52.1537 28.9619 52.1267 29.2243 52.1213 29.5002C52.1079 30.2394 52.0594 30.984 52.3261 31.6857C52.5929 32.3874 52.9675 33.0945 53.2881 33.7908C53.6088 34.4872 53.943 35.2157 54.2798 35.9227C54.4576 36.2977 54.6355 36.67 54.8187 37.0396C54.9508 37.3074 55.0828 37.5699 55.1071 37.8698L55.1017 37.377V37.4413L55.1071 36.595C55.064 37.1065 54.5412 37.2512 54.1046 37.3235C53.4148 37.4413 52.6252 37.4574 52.0136 37.835C51.4881 38.1591 51.4962 38.6358 51.4935 39.1902C51.4935 39.5465 51.4531 39.9348 51.5312 40.2883C51.5635 40.433 51.6228 40.5669 51.6686 40.7035C51.6929 40.7758 51.7171 40.8508 51.7333 40.9258C51.8195 41.3168 51.7333 41.7935 51.7683 40.0848V39.9937C51.7414 40.3365 51.5797 40.6124 51.3075 40.8213C51.0489 41.0222 50.6339 41.0891 50.4237 41.3382C50.3321 41.4454 50.3401 41.5605 50.3401 41.6944C50.3348 42.0453 50.3321 42.3961 50.3401 42.747C50.3455 42.9184 50.386 42.9988 50.4722 43.1461C50.7767 43.671 50.6716 44.3459 50.7093 42.6747V42.5836C50.6339 43.2934 49.909 43.4193 49.459 43.821C49.2138 44.0406 49.2353 44.37 49.2138 44.67C49.1895 45.0128 49.1194 45.361 49.0359 45.6931C48.9173 46.1591 48.7341 46.6385 48.3703 46.9707C48.0065 47.3028 47.5619 47.4206 47.1065 47.4822C45.3684 47.7152 43.7435 47.1528 42.1671 46.4859C40.3886 45.7333 38.6856 44.8173 37.0418 43.8049C35.2687 42.7122 33.5171 41.59 32.0297 40.1223C32.0916 40.1839 32.0243 40.6954 32.0243 40.7919C32.0243 41.0115 32.0027 41.2418 32.0297 41.4614C32.1132 42.1176 32.4339 42.6077 32.9566 43.0095C33.5953 43.4969 34.2717 43.9442 34.9399 44.3915C35.6594 44.8762 36.3897 45.3423 37.1388 45.7788C37.5942 46.044 38.2248 46.3466 38.2733 46.9385L38.2679 45.9315V46.0011L38.2733 45.669C38.249 45.9422 38.1278 46.1645 37.985 46.3948C37.826 46.6519 37.8152 46.9278 37.7586 47.2197C37.7343 47.3429 37.7505 48.5589 37.7586 48.5589C37.8367 48.5616 38.1332 48.6178 38.1978 48.5803C38.2517 48.5482 38.2868 48.3393 38.3137 48.2723C38.3838 48.0848 38.4538 47.8973 38.5374 47.7152C38.6263 47.517 38.7368 47.2679 38.947 47.1688C39.1571 47.0698 39.3889 47.1501 39.5856 47.2197C39.9952 47.3644 40.3859 47.5652 40.7767 47.7474C42.8704 48.7223 45.0558 49.7079 47.4299 49.2927C48.1062 49.1749 48.7125 48.8883 49.0817 48.2937C49.2919 47.9536 49.4213 47.5679 49.5183 47.1822C49.6476 46.6734 49.7743 46.2314 50.0653 45.7842C50.6689 44.8495 51.3102 43.9147 51.7845 42.9023C52.2588 41.89 52.3019 40.6312 52.1672 39.4849C52.116 39.0483 52.1375 40.4919 52.1591 40.3607C52.1698 40.2991 52.1698 40.2348 52.1806 40.1705C52.1941 40.0901 52.213 40.0071 52.2453 39.9321C52.2992 39.7955 52.3827 39.6777 52.4959 39.584C52.7735 39.3563 53.1669 39.3081 53.5091 39.2599C54.3418 39.1447 55.708 39.0215 55.7295 37.9422C55.7403 37.4038 55.8239 36.7744 55.6379 36.2548C55.417 35.6442 55.0855 35.0577 54.8133 34.4657C54.2528 33.2364 53.6924 32.0071 53.0995 30.7911C52.9648 30.5153 52.8705 30.2421 52.8085 29.9421L52.8004 29.8886C52.7546 29.5431 52.7492 29.8189 52.7815 30.7135C52.7896 30.6304 52.795 30.5474 52.8058 30.4644C52.8273 30.2983 52.8651 30.1323 52.9082 29.9689C53.0672 29.3743 53.307 28.7985 53.4822 28.2093C53.8136 27.079 54.0481 25.9193 54.1585 24.7463C54.3687 22.526 54.3014 20.1985 53.7732 18.0264C53.245 15.8544 52.1887 13.6448 50.8575 11.7351C49.6045 9.93534 47.7721 8.83189 45.708 8.1516C45.46 8.06858 45.2094 7.99358 44.9561 7.92127C44.8322 7.88645 44.6786 7.81682 44.5492 7.81146C44.428 7.80611 44.5034 7.7579 44.4415 7.84896C44.401 7.91056 44.4145 8.10072 44.4064 8.17035C44.3579 8.61227 44.4549 9.07025 44.4064 9.50949C44.4118 9.45861 44.4091 9.30862 44.4361 9.25238C44.4953 9.11846 44.3633 9.14257 44.5519 9.1506C44.6624 9.15328 44.8025 9.21756 44.9076 9.24702C45.1609 9.31666 45.4115 9.39165 45.6595 9.47468C46.1526 9.63537 46.6376 9.8175 47.1119 10.0318C48.055 10.4576 48.9443 11.004 49.7015 11.7084C50.5126 12.4636 51.1243 13.4091 51.6902 14.3545C52.2561 15.2999 52.7681 16.3364 53.1642 17.389C53.5603 18.4416 53.8352 19.454 54.013 20.5253C54.11 21.1011 54.1747 21.685 54.207 22.2688C54.2151 22.3947 54.2151 22.5206 54.2232 22.6465C54.2394 22.9143 54.2313 22.1671 54.2259 22.2367C54.2205 22.3224 54.2205 22.4108 54.2178 22.4965C54.2043 22.8179 54.1828 23.1393 54.1531 23.4607C54.0427 24.5936 53.819 25.7158 53.4983 26.8112C53.3313 27.387 53.1076 27.9441 52.9405 28.5173C52.7735 29.0904 52.7708 29.6047 52.7708 30.1725C52.7708 30.8474 52.7762 31.4446 53.0726 32.0687C53.3879 32.7383 53.7193 33.4025 54.0292 34.0747C54.3391 34.747 54.6247 35.3844 54.9265 36.0379C55.0801 36.3754 55.2364 36.7102 55.3927 37.0476C55.4628 37.1976 55.5409 37.3449 55.6029 37.4976C55.7322 37.8056 55.7161 38.3144 55.7215 37.2351L55.7269 36.7423C55.6406 37.7493 54.1127 37.8216 53.3663 37.9341C53.051 37.9823 52.698 38.0493 52.4555 38.2743C52.213 38.4992 52.1698 38.8019 52.1537 39.1019C52.1294 39.6589 52.1213 40.2348 52.1645 40.7919C52.1672 40.8267 52.1698 40.8642 52.1725 40.899C52.2264 41.3704 52.2103 40.0098 52.1941 40.1143C52.1698 40.2642 52.1618 40.4169 52.1294 40.5696C52.0674 40.8561 51.9704 41.1347 51.8519 41.4025C51.4234 42.3881 50.8117 43.3416 50.2054 44.2281C49.9063 44.6673 49.688 45.0959 49.5722 45.6154C49.4859 46.0011 49.3754 46.3895 49.1976 46.7457C48.8904 47.351 48.3811 47.7206 47.7263 47.8866C45.5517 48.433 43.3636 47.5974 41.418 46.7001C40.9006 46.4618 40.3859 46.2073 39.8632 45.985C39.626 45.8833 39.3161 45.7333 39.0494 45.7922C38.8176 45.8458 38.691 46.0654 38.594 46.2609C38.505 46.4377 38.435 46.6225 38.3649 46.8046C38.3245 46.9117 38.2975 47.043 38.2383 47.1421C38.152 47.2894 38.2275 47.1983 38.0954 47.2304C38.0011 47.2519 37.861 47.2197 37.7667 47.2144V48.5535C37.8152 48.3098 37.8179 48.0447 37.9364 47.8197C38.0496 47.6081 38.1924 47.4286 38.2517 47.193C38.3002 47.0001 38.2868 46.7992 38.2895 46.6011C38.2895 46.2743 38.3083 45.9422 38.2868 45.6181C38.2302 44.8227 37.1307 44.4316 36.5514 44.0781C35.5409 43.4594 34.56 42.7899 33.5899 42.1096C32.8327 41.5766 32.1644 41.0999 32.0377 40.1169V41.4561C33.4956 42.8943 35.2067 44.0004 36.9448 45.0744C38.6829 46.1484 40.65 47.201 42.6306 48.0098C43.5657 48.3928 44.5304 48.741 45.5409 48.8401C46.228 48.9071 47.0041 48.9097 47.6697 48.7008C48.8176 48.3393 49.1437 47.0751 49.2245 46.0011C49.2407 45.7869 49.2245 45.5592 49.3189 45.361C49.4186 45.1467 49.6207 45.0584 49.8174 44.9432C50.1192 44.7664 50.4587 44.5656 50.6285 44.2495C50.8494 43.8397 50.7363 43.2077 50.7309 42.7711C50.7309 42.5863 50.7309 42.4069 50.677 42.2247C50.6096 41.9917 50.3644 41.756 50.3563 41.5177V42.8327C50.4291 42.5086 50.9249 42.4149 51.1728 42.2569C51.4746 42.0667 51.7117 41.7989 51.771 41.44C51.8492 40.9552 51.8061 40.4223 51.7872 39.9348C51.7791 39.7527 51.7522 39.5786 51.6956 39.4045C51.6659 39.3081 51.6255 39.217 51.5932 39.1233C51.5716 39.0644 51.5555 39.0028 51.542 38.9412C51.4692 38.526 51.4584 38.8314 51.515 39.8598V39.9509C51.6417 38.5635 53.7678 38.901 54.6651 38.5046C55.2337 38.2528 55.1232 37.6904 55.1205 37.1655C55.1205 36.8816 55.1475 36.5789 55.0801 36.3031C54.9939 35.9442 54.7837 35.6094 54.6247 35.2799C53.8675 33.7185 53.1184 32.1437 52.4231 30.5528C52.3531 30.3921 52.2884 30.2287 52.2399 30.06C52.213 29.9689 52.1995 29.8752 52.1725 29.7841L52.1537 29.6743V30.4644C52.2345 30.3144 52.2399 30.0868 52.3261 29.9234C52.4285 29.7252 52.5525 29.5404 52.6576 29.3422C53.0079 28.6726 53.2531 27.9575 53.4094 27.221C53.7247 25.7265 53.687 24.1517 53.6358 22.6331C53.5926 21.3261 53.5037 20.0084 53.2908 18.7174C52.9217 16.4757 52.1564 14.2581 50.7848 12.4181C50.0545 11.4352 49.1572 10.5781 48.1359 9.89785C47.5862 9.53092 47.0014 9.21756 46.3978 8.95241C45.7538 8.67119 45.0046 8.53996 44.4118 8.17303C44.4576 8.19981 44.4064 8.77029 44.4064 8.8426C44.4064 8.92563 44.3444 9.46932 44.4118 9.51217L44.3983 9.52824Z" fill="#0C1C2D"/>
<path d="M31.5008 7.65503C26.9414 8.13444 23.6215 10.328 21.7568 14.5704C20.2262 18.0548 19.3235 21.6357 19.8139 25.4763C19.9972 26.9172 20.4714 28.2376 21.2529 29.4616C22.2607 31.0391 23.2039 32.6622 24.2467 34.2183C24.9446 35.2628 25.2276 36.2779 24.6078 37.4429C24.4731 37.6947 24.3033 37.9893 24.5997 38.3803C25.3461 37.0813 25.9686 35.9002 24.9446 34.4486C24.0985 33.2487 23.5191 31.856 22.6299 30.6936C19.8193 27.0083 19.7735 22.948 20.846 18.7297C21.1505 17.5272 21.6113 16.3595 22.064 15.1998C23.5488 11.4127 26.3135 9.12005 30.3313 8.33799C30.7275 8.26032 31.1344 8.22818 31.4604 7.955C31.4739 7.8559 31.4874 7.75413 31.4981 7.65503H31.5008Z" fill="#0C1C2D"/>
<path d="M31.5007 6.9856C29.353 7.21861 27.2404 7.85872 25.4781 9.1309C23.7157 10.4031 22.425 12.3073 21.5627 14.3509C20.4578 16.9676 19.7195 19.7262 19.6764 22.5759C19.6548 24.0329 19.6467 25.5166 19.9485 26.9495C20.2503 28.3824 20.8998 29.5609 21.6624 30.7795C22.4762 32.0784 23.2576 33.3962 24.1038 34.6737C24.4783 35.2388 24.8394 35.82 24.9283 36.5056C24.9903 36.977 24.7047 36.7038 24.9283 35.7932C24.9122 35.8629 24.9068 35.9379 24.8933 36.0075C24.8583 36.1762 24.8044 36.3396 24.737 36.4976C24.6319 36.7521 24.4595 36.9797 24.4325 37.2609C24.3975 37.6332 24.4244 38.0269 24.4298 38.3992C24.4298 38.5144 24.4217 38.6402 24.4487 38.7554C24.4622 38.817 24.4918 38.9027 24.5268 38.9509C24.6373 39.0982 24.6238 39.0045 24.7074 38.8599C25.0119 38.3215 25.3164 37.7591 25.4322 37.1458C25.5481 36.5324 25.5239 35.7905 25.4727 35.1504C25.4215 34.5103 25.0631 33.9827 24.7074 33.439C24.3166 32.8364 23.9771 32.2043 23.6214 31.5803C23.2657 30.9562 22.8696 30.367 22.4465 29.7858C21.6516 28.6931 21.0372 27.4718 20.6626 26.1755C20.4848 25.5622 20.3608 24.9328 20.2854 24.3007C20.2476 23.974 20.2315 23.6472 20.2072 23.3178C20.183 22.9589 20.218 23.6418 20.2018 23.6472C20.2099 23.6472 20.2099 23.4062 20.2126 23.3794C20.2234 23.1705 20.2369 22.9616 20.253 22.7553C20.3689 21.3948 20.6384 20.0342 21.0318 18.7272C21.4252 17.4202 21.9237 16.0302 22.5489 14.7794C23.0259 13.8259 23.6268 12.9314 24.3598 12.1547C25.8499 10.5691 27.8278 9.57282 29.9459 9.09876C30.2531 9.02913 30.5656 8.99163 30.8701 8.91396C31.0103 8.87914 31.1504 8.83361 31.277 8.7613C31.4791 8.64613 31.4738 8.55775 31.5007 8.33277C31.5573 7.89353 31.4441 7.43019 31.5007 6.99363C31.4765 7.18647 31.498 7.28288 31.3229 7.39269C31.1827 7.4784 31.0291 7.53196 30.8701 7.57482C30.5656 7.65249 30.2531 7.68998 29.9459 7.75962C29.3908 7.88282 28.8437 8.04084 28.3102 8.23903C27.3105 8.60864 26.3619 9.11483 25.5185 9.76565C24.675 10.4165 23.9609 11.1878 23.3654 12.0529C22.681 13.0492 22.2148 14.1393 21.7809 15.2588C21.2474 16.6435 20.8001 18.0442 20.5225 19.5039C20.2746 20.8055 20.1884 22.1072 20.1884 23.4303C20.1884 24.7533 20.2584 25.9987 20.5899 27.2575C20.9321 28.5538 21.5088 29.7778 22.2714 30.8813C22.7268 31.5401 23.1929 32.1722 23.5918 32.8685C23.9906 33.5649 24.3598 34.2666 24.8044 34.9281C25.028 35.2602 25.249 35.5816 25.3703 35.9673C25.3972 36.0503 25.4161 36.1334 25.4349 36.2191C25.5319 36.7119 25.4538 35.6406 25.4619 35.6165C25.4053 35.7772 25.3999 35.9753 25.3487 36.1441C25.249 36.4735 25.1035 36.7869 24.9418 37.0922C24.8583 37.2529 24.7693 37.4136 24.6777 37.5716C24.6211 37.6707 24.6481 37.7216 24.5592 37.6653C24.4702 37.6091 24.446 37.4189 24.4325 37.3279L24.4379 38.1742V38.0858L24.4325 38.5786C24.4702 38.3081 24.6319 38.0885 24.7343 37.8394C24.8529 37.5555 24.9229 37.2609 24.9418 36.9556C24.9795 36.3155 25.0226 35.6004 24.8879 34.9683C24.7532 34.3362 24.3867 33.7792 24.0283 33.2355C23.6295 32.6302 23.2468 32.0168 22.8642 31.4035C22.4815 30.7902 22.0827 30.134 21.6893 29.5019C21.3174 28.9047 20.9294 28.3208 20.6303 27.6807C20.0482 26.4353 19.7869 25.0962 19.706 23.7302C19.6952 23.5695 19.706 23.4008 19.6845 23.2428V23.6204C19.6845 23.5428 19.6845 23.4651 19.6898 23.3874C19.6925 23.3071 19.6952 23.2267 19.7006 23.1464C19.7195 22.7553 19.7545 22.367 19.8003 21.9786C19.8839 21.2876 20.0051 20.6047 20.1614 19.9271C20.4659 18.5986 20.9025 17.2997 21.4198 16.0355C22.2417 14.0241 23.3465 12.1654 25.0685 10.7861C26.9035 9.3157 29.1779 8.58185 31.498 8.33009C31.5573 8.32474 31.4603 6.99631 31.498 6.99095L31.5007 6.9856Z" fill="#0C1C2D"/>
<path d="M30.9545 28.6441C30.6905 27.7174 29.9737 27.2085 29.2111 26.7746C28.1817 26.1881 27.1361 25.939 26.096 26.7934C24.8699 27.8004 24.3741 28.9976 24.9238 30.3207C25.6514 32.0749 26.6969 33.6926 27.2844 35.5192C27.438 35.9986 27.8529 36.3281 28.4458 36.0736C28.1925 35.7763 27.8287 35.5192 27.7155 35.1817C27.1577 33.4837 26.317 31.925 25.5032 30.3448C24.8726 29.1208 25.3684 28.103 26.317 27.2594C27.2116 26.4612 28.1655 26.7264 29.0467 27.246C29.7231 27.6451 30.324 28.1727 30.9572 28.6441H30.9545Z" fill="#0C1C2D"/>
<path d="M30.9555 27.9748C30.616 26.8687 29.5112 26.1322 28.4629 25.7492C27.889 25.5403 27.2719 25.4974 26.7006 25.7465C26.1293 25.9956 25.6335 26.483 25.2724 26.9732C24.9571 27.4017 24.7443 27.8972 24.7038 28.4328C24.6607 29.0301 24.6392 29.6809 24.7227 30.2782C24.8089 30.9102 25.135 31.5048 25.4099 32.0726C25.7036 32.6806 26.0162 33.2778 26.3126 33.8831C26.644 34.5607 26.9593 35.2491 27.2045 35.9642C27.4093 36.5614 27.7462 37.0114 28.4414 36.7436C28.4791 36.7302 28.5007 35.4714 28.4414 35.4044C28.1477 35.0723 27.8216 34.8232 27.6734 34.392C27.4955 33.8831 27.3042 33.385 27.0886 32.8922C26.6602 31.9092 26.1644 30.9585 25.6712 30.005C25.5554 29.7773 25.4287 29.555 25.3452 29.314C25.3101 29.2149 25.2832 29.1158 25.2616 29.014C25.2509 28.9658 25.2509 28.9122 25.2374 28.8667C25.2293 28.8373 25.1539 30.0103 25.2428 29.6407C25.3425 29.2283 25.4826 28.8747 25.744 28.5319C26.3287 27.7659 27.1372 27.2276 28.1288 27.5035C29.2148 27.8034 30.0798 28.6551 30.9582 29.3113C30.907 29.2711 30.9636 28.7221 30.9636 28.6417C30.9636 28.548 31.0337 28.0311 30.9582 27.9722C30.0905 27.324 29.2417 26.4938 28.1773 26.1777C27.1129 25.8617 26.1751 26.5071 25.6039 27.3937C25.3667 27.7633 25.2347 28.165 25.2185 28.6016C25.1997 29.1372 25.1619 29.7184 25.2455 30.2514C25.329 30.7844 25.647 31.2906 25.9003 31.7807C26.1832 32.3297 26.4662 32.8815 26.7303 33.4412C27.0132 34.0385 27.2773 34.6438 27.509 35.2598C27.6168 35.549 27.6815 35.8758 27.8701 36.1249C28.0372 36.3498 28.2608 36.5293 28.4441 36.7409V35.4017C27.9914 35.5758 27.5602 35.4526 27.3446 35.0027C27.0913 34.475 26.9404 33.8858 26.6979 33.3475C26.1859 32.2092 25.5661 31.1192 25.0649 29.9755C24.9625 29.7425 24.8601 29.5095 24.7928 29.2631C24.7604 29.1399 24.7335 29.014 24.72 28.8881C24.6661 28.4409 24.9275 28.5614 24.7146 29.6782C24.7281 29.6032 24.7335 29.5283 24.7496 29.4559C24.8467 28.9712 25.0892 28.5293 25.3991 28.1516C26.1536 27.2303 27.1695 26.6571 28.3632 27.0535C29.4465 27.4124 30.6106 28.1838 30.9555 29.314C30.9016 29.1345 30.9609 28.8346 30.9609 28.6444C30.9609 28.4435 31.0148 28.1704 30.9555 27.9748Z" fill="#0C1C2D"/>
<path d="M44.3995 8.85753L44.4426 8.46918C41.1767 7.32823 37.7948 7.17289 34.3779 7.29341C34.3968 7.43536 34.4184 7.57463 34.4372 7.7139C37.811 7.63355 41.1389 7.95227 44.3995 8.85485V8.85753Z" fill="#0C1C2D"/>
<path d="M44.3994 9.52791L44.4425 9.13956C44.4587 9.00029 44.5153 7.8272 44.4425 7.80042C41.2062 6.68357 37.7759 6.50681 34.3778 6.62465C34.3644 6.62465 34.3617 7.84863 34.3778 7.96379C34.3913 8.05218 34.4021 8.14056 34.4156 8.22626C34.4398 8.40035 34.4236 8.35214 34.5665 8.3816C34.7632 8.42178 35.0111 8.37357 35.2132 8.37357C35.6659 8.37357 36.1186 8.37625 36.5713 8.38964C37.4498 8.41642 38.3283 8.46999 39.204 8.56105C40.9583 8.74049 42.6964 9.05921 44.3994 9.52523C44.3806 9.51988 44.4048 8.90923 44.4048 8.85566C44.4048 8.79942 44.4372 8.1968 44.3994 8.18609C42.6991 7.72007 40.961 7.40135 39.204 7.22191C38.3498 7.13352 37.4929 7.07996 36.636 7.05318C36.1833 7.03978 35.7306 7.03443 35.2806 7.03443C35.065 7.03443 34.8494 7.03711 34.6338 7.04246C34.5692 7.04246 34.5045 7.04246 34.4398 7.04782L34.4263 6.94336C34.3859 6.86302 34.394 6.71571 34.3832 6.62733V7.96647C37.7812 7.84863 41.2116 8.02272 44.4479 9.14224V7.8031L44.4048 8.19145C44.3563 8.63336 44.4533 9.09135 44.4048 9.53059L44.3994 9.52791Z" fill="#0C1C2D"/>
<path d="M44.7717 25.8792C47.073 25.3623 49.2126 25.1561 51.5327 26.064C49.8755 24.5642 47.0083 24.5186 44.7717 25.8792Z" fill="#0C1C2D"/>
<path d="M44.772 26.549C47.0463 26.0455 49.3206 25.8875 51.533 26.7338C51.506 26.7231 51.5384 26.1232 51.5384 26.0643C51.5384 25.9063 51.5384 25.7482 51.5384 25.5902C51.5384 25.5581 51.5545 25.4135 51.533 25.3947C49.6655 23.7449 46.7957 23.9993 44.772 25.2099C44.7154 25.2447 44.7666 25.8018 44.7666 25.8795C44.7666 25.9571 44.8286 26.5169 44.772 26.549C46.7984 25.3411 49.6655 25.0867 51.533 26.7338V25.3947C49.3179 24.5457 47.0463 24.7037 44.772 25.2099C44.6669 25.234 44.8582 26.5303 44.772 26.549Z" fill="#0C1C2D"/>
<path d="M38.1953 47.9208C38.0498 47.9128 37.9016 47.9074 37.7561 47.8994C37.5109 48.7538 37.1848 49.5787 36.8264 50.4009C37.6752 49.7796 38.0471 48.9118 38.1953 47.9208Z" fill="#0C1C2D"/>
<path d="M38.1957 47.2518C38.0717 47.2464 37.9262 47.2169 37.805 47.233C37.7484 47.2411 37.7699 47.225 37.743 47.2759C37.7295 47.3026 37.7241 47.3375 37.716 47.3669C37.6972 47.4285 37.6783 47.4875 37.6594 47.5491C37.5813 47.7981 37.4978 48.0472 37.4062 48.2909C37.2283 48.7757 37.0316 49.2551 36.8241 49.7292C36.8079 49.7693 36.8187 49.8979 36.8187 49.9247C36.8187 50.0827 36.8187 50.2407 36.8187 50.3987C36.8187 50.5568 36.8187 50.7148 36.8187 50.8728C36.8187 50.8996 36.8376 51.0603 36.8241 51.0683C37.6379 50.4657 38.0448 49.5658 38.193 48.5882C38.2253 48.374 38.2011 48.1356 38.1984 47.9187C38.1984 47.7606 38.1984 47.6026 38.1984 47.4446C38.1984 47.383 38.1849 47.308 38.193 47.2491C38.0448 48.2267 37.6379 49.1266 36.8241 49.7292V51.0683C37.0316 50.5943 37.2283 50.1148 37.4062 49.6301C37.4924 49.3917 37.5759 49.1507 37.6514 48.9096C37.6702 48.848 37.6891 48.7891 37.708 48.7275C37.716 48.698 37.7268 48.6659 37.7349 48.6364C37.7484 48.5936 37.743 48.5829 37.778 48.5695C37.8238 48.5507 37.9235 48.5775 37.972 48.5775L38.1903 48.5882C38.1903 48.5882 38.2226 47.2518 38.1903 47.2491L38.1957 47.2518Z" fill="#0C1C2D"/>
<path d="M34.4361 7.71761C34.4173 7.57834 34.3957 7.43639 34.3768 7.29712C33.4068 7.33194 32.4394 7.38818 31.4989 7.65869C31.4854 7.75778 31.472 7.85956 31.4612 7.95865C32.4717 8.10864 33.4391 7.74171 34.4361 7.72029V7.71761Z" fill="#0C1C2D"/>
<path d="M34.4362 7.04859L34.4065 6.837C34.4011 6.79951 34.4038 6.64952 34.3769 6.62542C34.3499 6.60132 34.1856 6.63345 34.1478 6.63345C34.0724 6.63613 33.9969 6.63881 33.9188 6.64417C33.6062 6.66024 33.2936 6.67899 32.981 6.71112C32.6685 6.74326 32.3774 6.78612 32.081 6.84504C31.9328 6.8745 31.7819 6.90932 31.6364 6.94681C31.6067 6.95485 31.5502 6.9602 31.5259 6.97627C31.4909 7.00306 31.4963 7.00841 31.4882 7.0593L31.4585 7.28428C31.4424 7.41016 31.4235 8.61806 31.4585 8.62342C32.461 8.76537 33.4364 8.41451 34.4335 8.38505C34.4577 8.38505 34.4308 7.04591 34.4335 7.04591C33.4364 7.07537 32.461 7.42623 31.4585 7.28428V8.62342L31.4855 8.42255C31.4882 8.40112 31.4855 8.33952 31.499 8.32345C31.5124 8.30738 31.5879 8.29935 31.6094 8.29399C31.7576 8.25382 31.9059 8.219 32.0541 8.18954C32.3613 8.12794 32.6711 8.08241 32.981 8.05027C33.2909 8.01813 33.5873 7.99938 33.8892 7.98331C33.9646 7.98063 34.0401 7.97527 34.1182 7.9726C34.1748 7.9726 34.2961 7.94314 34.3473 7.96456C34.3877 7.98063 34.3796 7.98867 34.3877 8.04223L34.4011 8.14669L34.4335 8.38505C34.4254 8.32881 34.4389 8.2431 34.4389 8.18954C34.4389 8.03152 34.4389 7.8735 34.4389 7.71548C34.4389 7.49586 34.4631 7.26285 34.4335 7.04591L34.4362 7.04859Z" fill="#0C1C2D"/>
<path d="M22.9421 41.6392C22.3088 42.1427 22.1337 42.5284 22.0986 43.1336C22.7157 42.8337 22.8262 42.4212 22.9421 41.6392Z" fill="#0C1C2D"/>
<path d="M22.9422 40.9697C22.6889 41.1706 22.4464 41.3983 22.2928 41.6875C22.1607 41.9366 22.1149 42.2098 22.0961 42.4883C22.0799 42.732 22.0907 42.9784 22.0907 43.2222C22.0907 43.3507 22.0907 43.4793 22.0907 43.6078C22.0907 43.6293 22.1042 43.8007 22.0961 43.8034C22.3548 43.6775 22.5757 43.498 22.7051 43.2382C22.8479 42.9517 22.8937 42.6222 22.9395 42.3089C22.9476 42.2473 22.9449 42.1723 22.9449 42.1134C22.9449 41.9553 22.9449 41.7973 22.9449 41.6393C22.9449 41.4813 22.9449 41.3233 22.9449 41.1652C22.9449 41.1036 22.9314 41.0286 22.9395 40.9697C22.8937 41.2831 22.8479 41.6125 22.7051 41.8991C22.5757 42.1589 22.3548 42.3383 22.0961 42.4642V43.7792C22.0961 43.7659 22.0988 43.7525 22.1015 43.7391V43.7632C22.1203 43.498 22.1742 43.2382 22.3036 43.0025C22.4572 42.7267 22.6943 42.5044 22.9395 42.3089C22.953 42.2982 22.9449 42.0973 22.9449 42.1134C22.9449 41.9553 22.9449 41.7973 22.9449 41.6393C22.9449 41.4813 22.9449 41.3233 22.9449 41.1652C22.9449 41.1385 22.926 40.9804 22.9395 40.9697H22.9422Z" fill="#0C1C2D"/>
<path d="M20.9587 45.0181C21.5462 44.6807 21.7106 44.4262 21.6594 43.9575C21.177 44.0834 21.1501 44.4396 20.9587 45.0181Z" fill="#0C1C2D"/>
<path d="M20.9587 45.6873C21.1501 45.5775 21.3441 45.457 21.4869 45.2883C21.5947 45.1624 21.654 45.0124 21.6674 44.8464C21.6782 44.7124 21.6755 44.5785 21.6755 44.4446C21.6755 44.0964 21.6863 43.7483 21.6701 43.4001C21.6701 43.376 21.6674 43.3492 21.6648 43.3251C21.6648 43.3197 21.6648 43.2876 21.6621 43.2849C21.6621 43.2849 21.6405 43.2903 21.6351 43.2929C21.5866 43.3063 21.5381 43.3251 21.495 43.3465C21.3495 43.4188 21.2498 43.542 21.1824 43.6867C21.0854 43.8956 21.0342 44.1286 20.9614 44.3455C20.9614 44.3643 20.9587 44.383 20.9614 44.4044C20.9614 44.45 20.9614 44.4955 20.9614 44.5437C20.9614 44.7017 20.9614 44.8597 20.9614 45.0178C20.9614 45.1758 20.9614 45.3338 20.9614 45.4918V45.5963C20.9614 45.6257 20.9614 45.6579 20.9668 45.6873C21.045 45.449 21.0989 45.1892 21.2201 44.9669C21.2659 44.8812 21.3279 44.8035 21.4061 44.7446C21.4492 44.7124 21.495 44.6883 21.5462 44.6669C21.5731 44.6562 21.6028 44.6455 21.6297 44.6374C21.6378 44.6374 21.6648 44.6241 21.6701 44.6267C21.6755 44.6294 21.6755 44.6723 21.6755 44.6776V44.6535C21.6755 44.6723 21.6755 44.691 21.6755 44.7098C21.6809 44.8089 21.6809 43.4054 21.6755 43.5019C21.6755 43.5126 21.6755 43.5206 21.6755 43.5313V43.5072C21.6648 43.6733 21.6055 43.8206 21.4977 43.9491C21.3549 44.1179 21.1582 44.2384 20.9695 44.3482C20.9587 44.3535 20.9641 44.5651 20.9641 44.5437C20.9641 44.7017 20.9641 44.8597 20.9641 45.0178C20.9641 45.1758 20.9641 45.3338 20.9641 45.4918V45.5963C20.9641 45.6257 20.9641 45.6579 20.9695 45.6873H20.9587Z" fill="#0C1C2D"/>
<path d="M24.269 39.1465C24.4577 38.9724 24.6544 38.7153 24.3795 38.56C24.1882 38.4501 24.137 38.7956 24.0588 38.9644C24.1289 39.026 24.199 39.0849 24.269 39.1465Z" fill="#0C1C2D"/>
<path d="M24.2692 39.8167C24.3501 39.7417 24.4282 39.6613 24.4767 39.5622C24.501 39.514 24.5118 39.4658 24.5171 39.4149C24.5225 39.3078 24.5198 39.2007 24.5225 39.0935C24.5225 38.823 24.5225 38.5525 24.5225 38.282C24.5225 38.2124 24.5225 38.1428 24.5171 38.0731C24.5171 38.0597 24.5145 38.049 24.5118 38.0356C24.4983 37.9874 24.4659 37.9499 24.4282 37.9205C24.3959 37.8937 24.3528 37.8669 24.3097 37.8696C24.2342 37.8696 24.1938 37.9553 24.1668 38.0142C24.1264 38.1053 24.1022 38.2044 24.0617 38.2954C24.0617 38.3142 24.059 38.3329 24.0617 38.3543C24.0617 38.3999 24.0617 38.4454 24.0617 38.4936C24.0617 38.6516 24.0617 38.8096 24.0617 38.9677C24.0617 39.1257 24.0617 39.2837 24.0617 39.4417V39.5462C24.0617 39.5756 24.0617 39.6078 24.0671 39.6372C24.1372 39.6988 24.2073 39.7578 24.2773 39.8194C24.2773 39.8006 24.28 39.7819 24.2773 39.7604C24.2773 39.7149 24.2773 39.6694 24.2773 39.6212C24.2773 39.4632 24.2773 39.3051 24.2773 39.1471C24.2773 38.9891 24.2773 38.8311 24.2773 38.6731V38.5686C24.2773 38.5391 24.2773 38.507 24.2719 38.4775C24.2019 38.4159 24.1318 38.357 24.0617 38.2954V39.6346C24.1076 39.5328 24.1318 39.4203 24.183 39.3185C24.2019 39.281 24.2288 39.2382 24.2692 39.2194C24.315 39.1953 24.3636 39.2167 24.404 39.2435C24.466 39.2837 24.5118 39.3399 24.5198 39.4149V39.3373L24.5145 38.2847C24.5198 38.124 24.5198 38.0731 24.5145 38.132V38.1079C24.501 38.2579 24.3743 38.3838 24.2719 38.4802C24.2719 38.499 24.2692 38.5177 24.2719 38.5391C24.2719 38.5847 24.2719 38.6302 24.2719 38.6784C24.2719 38.8364 24.2719 38.9945 24.2719 39.1525C24.2719 39.3105 24.2719 39.4685 24.2719 39.6265V39.731C24.2719 39.7604 24.2719 39.7926 24.2773 39.822L24.2692 39.8167Z" fill="#0C1C2D"/>
<path d="M24.0632 38.9644C23.9204 39.1518 23.8503 39.342 24.0336 39.5455C24.1144 39.4116 24.1926 39.2804 24.2734 39.1465L24.0632 38.9644Z" fill="#0C1C2D"/>
<path d="M24.0617 38.2954C24.0052 38.3704 23.954 38.4507 23.9324 38.5418C23.927 38.5686 23.9243 38.5954 23.9216 38.6221C23.9081 38.8444 23.9162 39.0694 23.9162 39.2917C23.9162 39.4497 23.9162 39.6078 23.9162 39.7658C23.9162 39.8274 23.9162 39.8943 23.9189 39.9533C23.9189 39.98 23.9216 40.0068 23.9297 40.0363C23.9405 40.0818 23.962 40.1247 23.989 40.1622C23.9971 40.1729 24.0052 40.1863 24.0159 40.197C24.0213 40.2023 24.0267 40.2077 24.0321 40.213L24.0429 40.1943L24.0887 40.1166C24.148 40.0149 24.2099 39.9158 24.2692 39.814C24.2692 39.7952 24.2719 39.7765 24.2692 39.7551C24.2692 39.7095 24.2692 39.664 24.2692 39.6158C24.2692 39.4578 24.2692 39.2998 24.2692 39.1417C24.2692 38.9837 24.2692 38.8257 24.2692 38.6677V38.5632C24.2692 38.5338 24.2692 38.5016 24.2638 38.4722L24.0537 38.29C24.0537 38.3088 24.051 38.3275 24.0537 38.349C24.0537 38.3945 24.0537 38.44 24.0537 38.4882C24.0537 38.6462 24.0537 38.8043 24.0537 38.9623C24.0537 39.1203 24.0537 39.2783 24.0537 39.4363V39.5408C24.0537 39.5703 24.0537 39.6024 24.059 39.6319L24.2692 39.814V38.4748C24.2046 38.5847 24.1372 38.6945 24.0725 38.8069L24.0483 38.8471C24.0483 38.8471 24.0402 38.8605 24.0375 38.8659C24.0267 38.8766 24.0375 38.8739 24.024 38.8659C24.0025 38.8498 23.9836 38.815 23.9701 38.7936C23.9432 38.748 23.927 38.6998 23.9216 38.6489V38.673C23.9216 38.6489 23.9216 38.6623 23.9216 38.7159V39.9318C23.9216 39.9318 23.9216 39.9211 23.9216 39.9158V39.9399C23.9297 39.8247 23.9917 39.7256 24.059 39.6345C24.059 39.6158 24.0617 39.597 24.059 39.5756C24.059 39.5301 24.059 39.4846 24.059 39.4363C24.059 39.2783 24.059 39.1203 24.059 38.9623C24.059 38.8043 24.059 38.6462 24.059 38.4882V38.3838C24.059 38.3543 24.059 38.3222 24.0537 38.2927L24.0617 38.2954Z" fill="#0C1C2D"/>
<path d="M21.9051 43.4292L21.8701 43.531L21.9563 43.5229L21.9051 43.4292Z" fill="#0C1C2D"/>
<path d="M21.9046 42.7598L21.875 42.8481L21.8696 42.8615C21.8696 42.8803 21.8669 42.899 21.8696 42.9205C21.8696 42.966 21.8696 43.0115 21.8696 43.0597C21.8696 43.2178 21.8696 43.3758 21.8696 43.5338C21.8696 43.6918 21.8696 43.8498 21.8696 44.0078V44.1123C21.8696 44.1418 21.8696 44.1739 21.875 44.2034L21.9612 44.1953C21.9612 44.1766 21.9639 44.1578 21.9612 44.1364C21.9612 44.0909 21.9612 44.0453 21.9612 43.9971C21.9612 43.8391 21.9612 43.6811 21.9612 43.5231C21.9612 43.3651 21.9612 43.207 21.9612 43.049V42.9446C21.9612 42.9151 21.9612 42.883 21.9558 42.8535L21.91 42.7705L21.9046 42.7598C21.9046 42.7785 21.9019 42.7973 21.9046 42.8187C21.9046 42.8642 21.9046 42.9097 21.9046 42.958C21.9046 43.116 21.9046 43.274 21.9046 43.432C21.9046 43.59 21.9046 43.7481 21.9046 43.9061V44.0105C21.9046 44.04 21.9046 44.0721 21.91 44.1016L21.9558 44.1846L21.9612 44.1953V42.8562L21.875 42.8642V44.2034L21.9046 44.115L21.91 44.1016C21.91 44.0828 21.9127 44.0641 21.91 44.0427C21.91 43.9971 21.91 43.9516 21.91 43.9034C21.91 43.7454 21.91 43.5874 21.91 43.4293C21.91 43.2713 21.91 43.1133 21.91 42.9553V42.8508C21.91 42.8214 21.91 42.7892 21.9046 42.7598Z" fill="#0C1C2D"/>
<path d="M13.0404 70.0681L11.0484 66.6481H9.7284V70.0681H8.6364V61.7041H11.3364C11.9684 61.7041 12.5004 61.8121 12.9324 62.0281C13.3724 62.2441 13.7004 62.5361 13.9164 62.9041C14.1324 63.2721 14.2404 63.6921 14.2404 64.1641C14.2404 64.7401 14.0724 65.2481 13.7364 65.6881C13.4084 66.1281 12.9124 66.4201 12.2484 66.5641L14.3484 70.0681H13.0404ZM9.7284 65.7721H11.3364C11.9284 65.7721 12.3724 65.6281 12.6684 65.3401C12.9644 65.0441 13.1124 64.6521 13.1124 64.1641C13.1124 63.6681 12.9644 63.2841 12.6684 63.0121C12.3804 62.7401 11.9364 62.6041 11.3364 62.6041H9.7284V65.7721ZM16.5012 62.4241C16.2932 62.4241 16.1172 62.3521 15.9732 62.2081C15.8292 62.0641 15.7572 61.8881 15.7572 61.6801C15.7572 61.4721 15.8292 61.2961 15.9732 61.1521C16.1172 61.0081 16.2932 60.9361 16.5012 60.9361C16.7012 60.9361 16.8692 61.0081 17.0052 61.1521C17.1492 61.2961 17.2212 61.4721 17.2212 61.6801C17.2212 61.8881 17.1492 62.0641 17.0052 62.2081C16.8692 62.3521 16.7012 62.4241 16.5012 62.4241ZM17.0292 63.4921V70.0681H15.9372V63.4921H17.0292ZM21.6023 63.3841C22.1703 63.3841 22.6663 63.5081 23.0903 63.7561C23.5223 64.0041 23.8423 64.3161 24.0503 64.6921V63.4921H25.1543V70.2121C25.1543 70.8121 25.0263 71.3441 24.7703 71.8081C24.5143 72.2801 24.1463 72.6481 23.6663 72.9121C23.1943 73.1761 22.6423 73.3081 22.0103 73.3081C21.1463 73.3081 20.4263 73.1041 19.8503 72.6961C19.2743 72.2881 18.9343 71.7321 18.8303 71.0281H19.9103C20.0303 71.4281 20.2783 71.7481 20.6543 71.9881C21.0303 72.2361 21.4823 72.3601 22.0103 72.3601C22.6103 72.3601 23.0983 72.1721 23.4743 71.7961C23.8583 71.4201 24.0503 70.8921 24.0503 70.2121V68.8321C23.8343 69.2161 23.5143 69.5361 23.0903 69.7921C22.6663 70.0481 22.1703 70.1761 21.6023 70.1761C21.0183 70.1761 20.4863 70.0321 20.0063 69.7441C19.5343 69.4561 19.1623 69.0521 18.8903 68.5321C18.6183 68.0121 18.4823 67.4201 18.4823 66.7561C18.4823 66.0841 18.6183 65.4961 18.8903 64.9921C19.1623 64.4801 19.5343 64.0841 20.0063 63.8041C20.4863 63.5241 21.0183 63.3841 21.6023 63.3841ZM24.0503 66.7681C24.0503 66.2721 23.9503 65.8401 23.7503 65.4721C23.5503 65.1041 23.2783 64.8241 22.9343 64.6321C22.5983 64.4321 22.2263 64.3321 21.8183 64.3321C21.4103 64.3321 21.0383 64.4281 20.7023 64.6201C20.3663 64.8121 20.0983 65.0921 19.8983 65.4601C19.6983 65.8281 19.5983 66.2601 19.5983 66.7561C19.5983 67.2601 19.6983 67.7001 19.8983 68.0761C20.0983 68.4441 20.3663 68.7281 20.7023 68.9281C21.0383 69.1201 21.4103 69.2161 21.8183 69.2161C22.2263 69.2161 22.5983 69.1201 22.9343 68.9281C23.2783 68.7281 23.5503 68.4441 23.7503 68.0761C23.9503 67.7001 24.0503 67.2641 24.0503 66.7681ZM30.2637 63.3721C30.7597 63.3721 31.2077 63.4801 31.6077 63.6961C32.0077 63.9041 32.3197 64.2201 32.5437 64.6441C32.7757 65.0681 32.8917 65.5841 32.8917 66.1921V70.0681H31.8117V66.3481C31.8117 65.6921 31.6477 65.1921 31.3197 64.8481C30.9917 64.4961 30.5437 64.3201 29.9757 64.3201C29.3997 64.3201 28.9397 64.5001 28.5957 64.8601C28.2597 65.2201 28.0917 65.7441 28.0917 66.4321V70.0681H26.9997V61.1881H28.0917V64.4281C28.3077 64.0921 28.6037 63.8321 28.9797 63.6481C29.3637 63.4641 29.7917 63.3721 30.2637 63.3721ZM36.0075 64.3921V68.2681C36.0075 68.5881 36.0755 68.8161 36.2115 68.9521C36.3475 69.0801 36.5835 69.1441 36.9195 69.1441H37.7235V70.0681H36.7395C36.1315 70.0681 35.6755 69.9281 35.3715 69.6481C35.0675 69.3681 34.9155 68.9081 34.9155 68.2681V64.3921H34.0635V63.4921H34.9155V61.8361H36.0075V63.4921H37.7235V64.3921H36.0075ZM44.8978 70.1521C44.3458 70.1521 43.8498 70.0561 43.4098 69.8641C42.9778 69.6641 42.6378 69.3921 42.3898 69.0481C42.1418 68.6961 42.0138 68.2921 42.0058 67.8361H43.1698C43.2098 68.2281 43.3698 68.5601 43.6498 68.8321C43.9378 69.0961 44.3538 69.2281 44.8978 69.2281C45.4178 69.2281 45.8258 69.1001 46.1218 68.8441C46.4258 68.5801 46.5778 68.2441 46.5778 67.8361C46.5778 67.5161 46.4898 67.2561 46.3138 67.0561C46.1378 66.8561 45.9178 66.7041 45.6538 66.6001C45.3898 66.4961 45.0338 66.3841 44.5858 66.2641C44.0338 66.1201 43.5898 65.9761 43.2538 65.8321C42.9258 65.6881 42.6418 65.4641 42.4018 65.1601C42.1698 64.8481 42.0538 64.4321 42.0538 63.9121C42.0538 63.4561 42.1698 63.0521 42.4018 62.7001C42.6338 62.3481 42.9578 62.0761 43.3738 61.8841C43.7978 61.6921 44.2818 61.5961 44.8258 61.5961C45.6098 61.5961 46.2498 61.7921 46.7458 62.1841C47.2498 62.5761 47.5338 63.0961 47.5978 63.7441H46.3978C46.3578 63.4241 46.1898 63.1441 45.8938 62.9041C45.5978 62.6561 45.2058 62.5321 44.7178 62.5321C44.2618 62.5321 43.8898 62.6521 43.6018 62.8921C43.3138 63.1241 43.1698 63.4521 43.1698 63.8761C43.1698 64.1801 43.2538 64.4281 43.4218 64.6201C43.5978 64.8121 43.8098 64.9601 44.0578 65.0641C44.3138 65.1601 44.6698 65.2721 45.1258 65.4001C45.6778 65.5521 46.1218 65.7041 46.4578 65.8561C46.7938 66.0001 47.0818 66.2281 47.3218 66.5401C47.5618 66.8441 47.6818 67.2601 47.6818 67.7881C47.6818 68.1961 47.5738 68.5801 47.3578 68.9401C47.1418 69.3001 46.8218 69.5921 46.3978 69.8161C45.9738 70.0401 45.4738 70.1521 44.8978 70.1521ZM49.8527 62.4241C49.6447 62.4241 49.4687 62.3521 49.3247 62.2081C49.1807 62.0641 49.1087 61.8881 49.1087 61.6801C49.1087 61.4721 49.1807 61.2961 49.3247 61.1521C49.4687 61.0081 49.6447 60.9361 49.8527 60.9361C50.0527 60.9361 50.2207 61.0081 50.3567 61.1521C50.5007 61.2961 50.5727 61.4721 50.5727 61.6801C50.5727 61.8881 50.5007 62.0641 50.3567 62.2081C50.2207 62.3521 50.0527 62.4241 49.8527 62.4241ZM50.3807 63.4921V70.0681H49.2887V63.4921H50.3807ZM51.8339 66.7561C51.8339 66.0841 51.9699 65.4961 52.2419 64.9921C52.5139 64.4801 52.8859 64.0841 53.3579 63.8041C53.8379 63.5241 54.3739 63.3841 54.9659 63.3841C55.4779 63.3841 55.9539 63.5041 56.3939 63.7441C56.8339 63.9761 57.1699 64.2841 57.4019 64.6681V61.1881H58.5059V70.0681H57.4019V68.8321C57.1859 69.2241 56.8659 69.5481 56.4419 69.8041C56.0179 70.0521 55.5219 70.1761 54.9539 70.1761C54.3699 70.1761 53.8379 70.0321 53.3579 69.7441C52.8859 69.4561 52.5139 69.0521 52.2419 68.5321C51.9699 68.0121 51.8339 67.4201 51.8339 66.7561ZM57.4019 66.7681C57.4019 66.2721 57.3019 65.8401 57.1019 65.4721C56.9019 65.1041 56.6299 64.8241 56.2859 64.6321C55.9499 64.4321 55.5779 64.3321 55.1699 64.3321C54.7619 64.3321 54.3899 64.4281 54.0539 64.6201C53.7179 64.8121 53.4499 65.0921 53.2499 65.4601C53.0499 65.8281 52.9499 66.2601 52.9499 66.7561C52.9499 67.2601 53.0499 67.7001 53.2499 68.0761C53.4499 68.4441 53.7179 68.7281 54.0539 68.9281C54.3899 69.1201 54.7619 69.2161 55.1699 69.2161C55.5779 69.2161 55.9499 69.1201 56.2859 68.9281C56.6299 68.7281 56.9019 68.4441 57.1019 68.0761C57.3019 67.7001 57.4019 67.2641 57.4019 66.7681ZM66.3512 66.5281C66.3512 66.7361 66.3392 66.9561 66.3152 67.1881H61.0592C61.0992 67.8361 61.3192 68.3441 61.7192 68.7121C62.1272 69.0721 62.6192 69.2521 63.1952 69.2521C63.6672 69.2521 64.0592 69.1441 64.3712 68.9281C64.6912 68.7041 64.9152 68.4081 65.0432 68.0401H66.2192C66.0432 68.6721 65.6912 69.1881 65.1632 69.5881C64.6352 69.9801 63.9792 70.1761 63.1952 70.1761C62.5712 70.1761 62.0112 70.0361 61.5152 69.7561C61.0272 69.4761 60.6432 69.0801 60.3632 68.5681C60.0832 68.0481 59.9432 67.4481 59.9432 66.7681C59.9432 66.0881 60.0792 65.4921 60.3512 64.9801C60.6232 64.4681 61.0032 64.0761 61.4912 63.8041C61.9872 63.5241 62.5552 63.3841 63.1952 63.3841C63.8192 63.3841 64.3712 63.5201 64.8512 63.7921C65.3312 64.0641 65.6992 64.4401 65.9552 64.9201C66.2192 65.3921 66.3512 65.9281 66.3512 66.5281ZM65.2232 66.3001C65.2232 65.8841 65.1312 65.5281 64.9472 65.2321C64.7632 64.9281 64.5112 64.7001 64.1912 64.5481C63.8792 64.3881 63.5312 64.3081 63.1472 64.3081C62.5952 64.3081 62.1232 64.4841 61.7312 64.8361C61.3472 65.1881 61.1272 65.6761 61.0712 66.3001H65.2232Z" fill="black"/>
</svg>
